<?xml version="1.0" standalone="no"?>
<!DOCTYPE svg PUBLIC "-//W3C//DTD SVG 20010904//EN"
 "http://www.w3.org/TR/2001/REC-SVG-20010904/DTD/svg10.dtd">
<svg version="1.0" xmlns="http://www.w3.org/2000/svg"
 width="2400.000000pt" height="2400.000000pt" viewBox="0 0 2400.000000 2400.000000"
 preserveAspectRatio="xMidYMid meet">
<metadata>
Created by potrace 1.14, written by Peter Selinger 2001-2017
</metadata>
<g transform="translate(0.000000,2400.000000) scale(0.100000,-0.100000)"
fill="#000000" stroke="none">
<path d="M11750 20439 c-135 -17 -290 -31 -415 -39 -79 -5 -131 -12 -133 -19
-2 -6 -23 -11 -47 -11 -24 0 -47 -4 -50 -10 -3 -5 -20 -10 -37 -10 -18 0 -45
-4 -62 -9 -97 -29 -145 -41 -176 -44 -19 -3 -60 -14 -90 -26 -30 -11 -60 -21
-67 -21 -7 0 -37 -11 -67 -25 -30 -14 -65 -25 -78 -25 -13 0 -41 -12 -63 -25
-23 -15 -55 -25 -77 -25 -20 0 -40 -4 -43 -10 -3 -5 -15 -10 -26 -10 -10 0
-19 -4 -19 -9 0 -4 -21 -16 -47 -26 -27 -10 -52 -24 -56 -32 -4 -7 -19 -13
-33 -13 -13 0 -42 -11 -64 -25 -22 -14 -53 -25 -69 -25 -20 0 -30 -6 -34 -20
-3 -11 -13 -22 -24 -25 -29 -9 -124 -57 -160 -82 -19 -13 -40 -23 -47 -23 -7
0 -23 -11 -36 -25 -13 -14 -34 -25 -47 -25 -13 0 -23 -4 -23 -9 0 -12 -76 -61
-95 -61 -8 0 -15 -7 -15 -15 0 -8 -5 -15 -10 -15 -6 0 -23 -11 -38 -25 -15
-14 -31 -25 -36 -25 -5 0 -24 -11 -42 -25 -18 -14 -37 -25 -43 -25 -6 0 -18
-11 -27 -25 -9 -14 -23 -25 -31 -25 -8 0 -23 -10 -33 -23 -10 -13 -33 -31 -52
-41 -19 -10 -44 -34 -56 -52 -12 -19 -29 -34 -36 -34 -8 0 -23 -10 -33 -23
-45 -55 111 -52 -2308 -57 -1227 -3 -2241 -9 -2255 -14 -14 -5 -36 -18 -48
-30 -56 -50 -52 146 -52 -2794 l0 -2720 -24 -23 -23 -22 -884 2 c-486 1 -912
-1 -947 -5 -35 -3 -70 -13 -78 -21 -17 -17 -20 -242 -4 -274 11 -19 129 -19
9520 -19 l9510 0 5 23 c4 13 5 79 3 146 -3 131 -10 147 -55 136 -13 -3 -23 -1
-23 4 0 12 -1562 14 -1745 2 -112 -7 -133 -6 -155 8 -14 9 -27 23 -29 31 -2 8
-5 1230 -6 2715 -1 1485 -6 2718 -10 2740 -8 43 -55 95 -86 95 -10 0 -19 4
-21 10 -2 6 -798 11 -2258 12 -1481 2 -2261 6 -2272 13 -9 6 -41 34 -72 63
-31 28 -59 52 -62 52 -3 0 -17 11 -32 25 -15 14 -32 25 -39 25 -7 0 -13 7 -13
15 0 8 -5 15 -11 15 -7 0 -19 8 -28 19 -9 10 -26 21 -38 25 -13 4 -23 12 -23
17 0 5 -5 9 -10 9 -6 0 -21 9 -33 20 -12 11 -49 41 -82 65 -33 24 -65 48 -70
52 -6 5 -27 17 -48 27 -20 11 -37 23 -37 28 0 4 -11 8 -25 8 -15 0 -31 9 -41
25 -9 14 -25 25 -35 25 -11 0 -19 4 -19 9 0 5 -11 12 -25 15 -14 4 -25 11 -25
16 0 6 -9 10 -19 10 -11 0 -22 4 -26 9 -6 11 -63 41 -77 41 -5 0 -24 11 -41
24 -18 13 -44 26 -59 30 -16 3 -28 11 -28 16 0 6 -6 10 -12 10 -7 0 -24 9 -38
20 -14 11 -31 20 -38 20 -8 0 -28 6 -45 14 -18 7 -51 19 -74 26 -24 7 -43 19
-43 27 0 9 -13 13 -39 13 -21 0 -52 7 -67 15 -16 8 -39 15 -51 15 -12 0 -24 4
-28 9 -3 5 -29 17 -58 26 -28 9 -60 20 -69 26 -10 5 -32 9 -49 9 -17 0 -37 7
-45 15 -9 8 -28 15 -44 15 -16 0 -32 5 -35 10 -3 6 -20 10 -37 10 -16 0 -44 6
-61 14 -49 20 -123 36 -171 36 -25 0 -46 5 -48 11 -5 15 -76 27 -223 39 -66 5
-178 17 -250 26 -146 18 -476 26 -575 13z m450 -353 c63 -4 158 -14 210 -22
52 -8 116 -14 143 -14 26 0 47 -4 47 -8 0 -9 67 -29 127 -39 18 -3 44 -16 58
-29 14 -13 31 -24 37 -24 5 0 19 -11 30 -25 11 -14 25 -25 33 -25 7 0 18 -6
24 -14 7 -8 28 -22 48 -31 19 -9 38 -26 40 -36 3 -12 14 -19 29 -19 13 0 30
-10 38 -22 8 -13 31 -32 51 -42 19 -11 35 -22 35 -26 0 -5 11 -11 25 -14 16
-4 25 -13 25 -26 0 -11 6 -20 13 -20 7 0 21 -11 31 -25 10 -14 27 -25 36 -25
10 0 31 -16 47 -35 17 -19 35 -35 41 -35 5 0 40 -29 77 -65 36 -36 73 -65 81
-65 8 0 19 -11 24 -25 5 -14 16 -25 24 -25 7 0 21 -11 30 -25 9 -14 23 -25 31
-25 8 0 15 -5 15 -10 0 -15 67 -78 101 -96 16 -8 33 -23 39 -35 6 -11 56 -65
111 -121 54 -55 99 -106 99 -114 0 -7 10 -19 23 -25 12 -7 29 -20 38 -31 9
-10 21 -18 28 -18 6 0 11 -9 11 -21 0 -12 8 -23 19 -26 11 -3 22 -15 25 -27 3
-12 17 -28 31 -36 14 -7 25 -21 25 -31 0 -9 11 -24 25 -33 14 -9 25 -21 25
-28 0 -6 23 -33 50 -60 28 -27 50 -55 50 -62 0 -7 11 -22 25 -32 14 -10 25
-24 25 -30 0 -7 11 -22 25 -35 13 -13 25 -30 25 -37 0 -7 11 -25 25 -40 14
-15 25 -30 25 -35 0 -4 11 -20 25 -35 14 -15 25 -32 25 -39 0 -7 5 -13 10 -13
6 0 10 -7 10 -15 0 -8 7 -15 15 -15 9 0 15 -9 15 -23 0 -15 9 -29 25 -37 14
-7 25 -22 25 -32 0 -10 11 -31 25 -46 14 -15 25 -35 25 -44 0 -11 8 -18 19
-18 19 0 31 -18 31 -46 0 -8 11 -27 25 -42 14 -15 25 -34 25 -42 0 -8 11 -32
25 -52 14 -20 25 -44 25 -52 0 -9 4 -16 10 -16 13 0 40 -54 40 -80 0 -11 5
-20 10 -20 6 0 10 -9 10 -20 0 -11 7 -23 15 -26 8 -4 15 -14 15 -23 0 -10 11
-28 25 -41 18 -17 25 -34 25 -60 0 -26 8 -45 25 -64 14 -15 25 -33 25 -41 0
-8 11 -40 25 -71 14 -31 25 -65 25 -76 0 -11 7 -26 15 -34 8 -9 15 -24 15 -34
0 -10 5 -22 10 -25 6 -3 10 -17 10 -30 0 -26 30 -98 43 -103 4 -2 7 -19 7 -38
0 -19 10 -63 21 -97 30 -87 79 -284 79 -316 0 -14 6 -46 14 -71 19 -64 28
-152 17 -170 -7 -10 -26 -14 -67 -12 -32 1 -61 6 -64 10 -6 8 -87 29 -165 41
-57 9 -100 25 -110 40 -3 6 -19 11 -35 11 -30 0 -80 18 -91 33 -3 4 -28 12
-55 16 -50 9 -130 35 -239 78 -33 12 -70 23 -82 23 -13 0 -23 5 -23 10 0 6 -8
10 -18 10 -10 0 -27 7 -38 15 -10 8 -27 15 -37 15 -9 0 -25 4 -35 9 -49 27
-88 41 -113 41 -15 0 -29 3 -31 8 -4 10 -75 42 -93 42 -9 0 -23 4 -33 10 -9 5
-35 17 -57 26 -57 25 -95 68 -95 108 0 18 -11 60 -25 94 -14 34 -25 79 -25
101 0 21 -7 52 -15 67 -8 16 -20 55 -27 87 -7 31 -16 57 -20 57 -4 0 -8 10 -8
23 0 12 -7 31 -15 41 -8 11 -15 35 -15 53 0 18 -4 33 -9 33 -5 0 -11 19 -15
43 -7 45 -56 157 -68 157 -5 0 -8 23 -8 50 0 28 -4 50 -10 50 -5 0 -10 6 -10
14 0 7 -7 19 -15 26 -8 7 -15 21 -15 31 0 11 -4 27 -9 37 -5 9 -12 24 -15 32
-3 8 -10 22 -15 30 -5 8 -23 44 -40 80 -17 36 -40 79 -51 95 -11 17 -20 39
-20 50 0 11 -23 55 -50 98 -28 43 -50 85 -50 94 0 9 -11 31 -25 49 -14 18 -25
40 -25 48 0 9 -6 16 -13 16 -16 0 -37 41 -37 71 0 11 -11 24 -25 31 -14 6 -25
19 -25 30 0 10 -4 18 -10 18 -5 0 -12 11 -16 25 -3 14 -12 25 -18 25 -7 0 -19
11 -26 25 -7 14 -17 25 -22 25 -4 0 -8 8 -8 19 0 10 -11 26 -25 35 -15 10 -25
26 -25 40 0 14 -13 35 -33 52 -18 16 -44 45 -58 64 -13 19 -32 42 -41 51 -10
9 -18 21 -18 27 0 5 -9 12 -20 15 -11 3 -23 13 -27 23 -8 22 -206 219 -228
228 -9 3 -19 14 -22 24 -5 17 -75 72 -93 72 -6 0 -10 6 -10 13 0 8 -10 19 -23
26 -12 7 -27 22 -32 34 -6 12 -21 24 -34 25 -14 2 -33 15 -44 28 -10 13 -25
24 -33 24 -8 0 -14 4 -14 9 0 5 -16 16 -35 25 -19 9 -35 21 -35 26 0 5 -8 11
-17 14 -10 3 -36 21 -58 40 -21 19 -51 37 -65 39 -14 3 -35 15 -47 26 -12 12
-28 21 -35 21 -7 0 -25 11 -40 25 -15 14 -31 25 -36 25 -4 0 -32 11 -60 25
-29 14 -56 25 -61 25 -6 0 -22 11 -37 25 -15 14 -35 25 -46 25 -33 0 -98 25
-98 37 0 7 -9 13 -20 13 -20 0 -27 2 -88 33 -19 9 -46 17 -62 17 -17 0 -30 7
-34 16 -4 9 -9 14 -13 11 -3 -3 -18 0 -34 8 -15 8 -42 15 -59 15 -17 0 -38 6
-46 14 -7 8 -19 16 -26 19 -10 4 -10 8 2 19 16 16 98 33 235 48 44 6 91 12
105 16 14 3 75 9 137 13 62 4 114 9 117 11 7 8 258 5 386 -4z m-1555 -317
c190 -22 232 -28 287 -41 31 -7 60 -17 64 -21 4 -4 19 -7 33 -8 31 0 158 -32
167 -42 4 -4 15 -7 25 -7 10 0 38 -11 63 -25 25 -14 60 -25 79 -25 22 0 37 -6
41 -15 3 -8 15 -15 26 -15 11 0 20 -4 20 -10 0 -5 9 -10 20 -10 12 0 33 -8 48
-17 25 -16 72 -60 72 -67 0 -11 -126 -66 -150 -66 -19 0 -33 -8 -44 -25 -9
-14 -25 -25 -36 -25 -11 0 -38 -11 -60 -25 -22 -14 -46 -25 -54 -25 -25 0 -46
-12 -46 -25 0 -14 -22 -25 -51 -25 -11 0 -31 -11 -45 -25 -15 -15 -36 -25 -54
-25 -18 0 -39 -10 -54 -25 -14 -14 -31 -25 -38 -26 -7 0 -26 -9 -43 -19 -16
-10 -49 -29 -72 -41 -24 -13 -43 -26 -43 -31 0 -4 -7 -8 -16 -8 -9 0 -34 -16
-57 -35 -22 -19 -62 -43 -88 -53 -27 -10 -58 -26 -71 -37 -13 -11 -34 -26 -48
-33 -14 -7 -45 -31 -70 -52 -25 -22 -53 -40 -62 -40 -9 0 -25 -11 -36 -25 -11
-14 -25 -25 -32 -25 -6 0 -28 -16 -48 -35 -20 -19 -45 -38 -54 -41 -10 -3 -18
-10 -18 -15 0 -5 -8 -9 -19 -9 -10 0 -26 -11 -35 -25 -9 -14 -21 -25 -27 -25
-6 0 -27 -16 -46 -35 -19 -19 -41 -35 -49 -35 -8 0 -19 -11 -24 -24 -5 -13
-18 -27 -29 -31 -12 -3 -21 -11 -21 -16 0 -5 -6 -9 -12 -9 -7 0 -33 -20 -57
-45 -24 -24 -52 -47 -62 -50 -11 -4 -19 -12 -19 -18 0 -7 -23 -32 -51 -57 -72
-63 -269 -262 -269 -272 0 -4 -4 -8 -10 -8 -12 0 -70 -56 -70 -68 0 -4 -22
-31 -50 -59 -27 -28 -50 -54 -50 -57 0 -4 -22 -28 -50 -55 -29 -28 -50 -57
-50 -70 0 -12 -6 -21 -15 -21 -8 0 -25 -16 -37 -35 -13 -19 -28 -35 -34 -35
-7 0 -15 -11 -18 -25 -4 -14 -11 -25 -16 -25 -6 0 -10 -5 -10 -11 0 -7 -15
-27 -34 -45 -18 -18 -36 -45 -40 -59 -4 -15 -16 -29 -26 -32 -11 -3 -20 -13
-20 -22 0 -10 -11 -28 -25 -41 -14 -13 -25 -30 -25 -38 0 -8 -11 -25 -24 -37
-13 -12 -27 -31 -30 -42 -4 -12 -16 -23 -26 -26 -13 -3 -20 -14 -20 -29 0 -13
-11 -35 -25 -50 -14 -15 -25 -34 -25 -43 0 -9 -4 -21 -10 -28 -33 -41 -57 -77
-75 -112 -11 -22 -30 -51 -42 -65 -13 -14 -23 -34 -23 -46 0 -12 -7 -24 -15
-28 -8 -3 -15 -12 -15 -21 0 -8 -4 -15 -10 -15 -5 0 -10 -7 -10 -15 0 -14 -30
-85 -40 -95 -10 -9 -44 -65 -45 -72 0 -3 -3 -10 -7 -14 -5 -4 -8 -15 -8 -25 0
-10 -11 -29 -25 -43 -17 -17 -25 -36 -25 -61 0 -21 -5 -35 -13 -35 -6 0 -18
-15 -26 -32 -7 -18 -19 -47 -27 -65 -8 -17 -14 -36 -14 -42 0 -6 -4 -11 -10
-11 -5 0 -10 -11 -10 -25 0 -14 -4 -25 -9 -25 -10 0 -41 -78 -41 -103 0 -9 -4
-17 -9 -17 -14 0 -41 -66 -41 -102 0 -18 -11 -51 -25 -73 -13 -22 -25 -55 -25
-72 0 -18 -4 -33 -9 -33 -4 0 -18 -30 -30 -67 -34 -102 -63 -126 -95 -78 -24
36 -24 891 0 993 8 37 20 75 25 84 5 10 9 39 9 65 0 27 7 70 15 97 8 27 15 62
15 78 0 15 4 28 9 28 5 0 11 19 14 43 10 71 31 157 39 157 4 0 8 15 8 33 0 17
12 55 25 82 15 30 25 68 25 94 0 32 7 53 25 77 15 20 25 46 25 66 0 21 7 40
19 50 11 9 23 34 26 55 7 40 54 143 66 143 4 0 10 11 13 25 4 14 11 25 16 25
6 0 10 11 10 24 0 14 11 38 25 54 14 17 25 39 25 50 0 11 3 22 8 24 4 2 16 21
27 43 11 22 29 54 41 70 12 17 24 39 26 50 2 11 13 24 26 30 13 6 22 19 22 31
0 11 9 29 20 39 11 10 32 43 48 73 15 29 34 58 43 63 9 4 22 22 29 38 6 17 23
37 36 46 13 8 24 24 24 34 0 10 11 26 25 35 14 9 25 21 25 26 0 5 20 31 45 57
25 25 45 50 45 55 0 5 13 21 28 36 16 15 31 36 35 46 4 10 16 20 27 23 11 3
20 12 20 21 0 18 116 132 134 132 8 0 16 9 19 21 3 11 15 23 26 26 12 3 21 11
21 19 0 7 19 26 43 43 23 16 50 37 59 48 9 10 22 23 28 28 6 6 19 22 30 36 11
15 33 29 49 32 16 4 50 27 75 52 25 25 50 45 56 45 5 0 10 7 10 15 0 8 7 15
15 15 8 0 15 5 15 10 0 6 6 10 13 10 7 0 24 11 39 25 15 14 34 25 41 25 8 0
20 7 27 15 7 8 16 15 21 15 14 0 78 45 79 55 1 10 109 65 127 65 6 0 18 11 27
25 11 17 26 25 46 25 17 0 30 3 30 8 0 4 17 16 38 26 20 10 51 25 67 33 31 16
116 59 147 75 10 4 29 8 43 8 14 0 25 4 25 9 0 22 108 26 245 10z m3188 -153
c18 -8 43 -17 57 -20 14 -3 35 -14 47 -26 12 -11 31 -20 43 -20 11 0 20 -4 20
-8 0 -10 125 -92 140 -92 5 0 10 -4 10 -9 0 -10 117 -91 131 -91 8 0 43 -27
75 -57 7 -7 15 -13 19 -13 4 0 25 -18 47 -40 23 -22 46 -40 52 -40 6 0 42 -29
79 -65 37 -36 72 -65 77 -65 5 0 21 -16 36 -35 14 -19 35 -35 45 -35 11 0 19
-4 19 -9 0 -5 16 -25 35 -44 19 -19 35 -40 35 -47 0 -14 40 -49 58 -50 6 0 12
-6 12 -14 0 -8 29 -44 64 -80 35 -37 67 -73 70 -82 3 -9 15 -18 26 -21 11 -3
20 -14 20 -24 0 -11 4 -19 8 -19 5 0 30 -31 56 -68 25 -37 55 -74 66 -82 11
-8 20 -22 20 -31 0 -10 12 -31 28 -47 42 -45 72 -86 72 -99 0 -6 6 -18 14 -26
20 -20 86 -124 86 -136 0 -5 11 -22 25 -37 14 -15 25 -37 25 -50 0 -13 6 -27
13 -31 6 -4 18 -21 26 -38 32 -70 65 -141 73 -155 10 -19 35 -70 42 -90 4 -8
15 -28 25 -45 11 -16 20 -40 20 -52 1 -13 5 -23 9 -23 5 0 23 -45 42 -100 18
-55 37 -103 41 -106 5 -3 9 -25 9 -50 0 -24 4 -44 8 -44 13 0 42 -91 42 -131
0 -20 7 -53 15 -72 8 -20 15 -47 15 -60 0 -13 5 -28 12 -35 15 -15 18 -29 25
-122 3 -41 10 -78 15 -81 5 -3 13 -53 18 -110 5 -57 13 -135 19 -174 25 -178
29 -259 15 -287 -14 -28 -15 -28 -124 -28 l-109 0 -25 33 c-21 27 -26 45 -26
89 0 31 -10 100 -21 154 -12 55 -25 128 -30 164 -9 78 -30 160 -41 160 -5 0
-8 12 -8 28 0 15 -10 56 -21 92 -11 36 -25 83 -29 105 -11 54 -69 215 -86 240
-8 11 -14 34 -14 52 0 17 -4 35 -10 38 -5 3 -10 14 -10 24 0 10 -7 24 -15 31
-8 7 -15 23 -15 36 0 14 -4 32 -9 42 -22 40 -41 86 -41 99 0 7 -7 13 -15 13
-8 0 -15 7 -15 15 0 14 -9 35 -32 75 -20 35 -37 77 -42 100 -3 14 -14 35 -26
47 -11 12 -20 28 -20 34 0 7 -11 27 -25 45 -14 18 -25 40 -25 48 0 9 -11 26
-25 38 -14 12 -25 29 -25 39 0 10 -11 31 -25 47 -14 17 -25 36 -25 44 0 8 -11
25 -25 38 -14 13 -25 29 -25 36 0 7 -10 25 -23 41 -12 15 -31 45 -42 66 -11
20 -22 37 -26 37 -4 0 -9 9 -12 21 -3 11 -15 23 -26 26 -15 4 -21 13 -21 34 0
17 -10 38 -25 53 -14 14 -25 29 -25 33 0 5 -11 17 -25 27 -14 10 -25 27 -25
36 0 10 -9 20 -20 23 -11 3 -23 13 -27 24 -3 10 -17 28 -30 40 -13 12 -23 28
-23 36 0 7 -11 24 -25 37 -14 13 -25 29 -25 36 0 6 -11 19 -25 28 -14 9 -25
21 -25 27 0 5 -11 20 -25 33 -14 13 -25 28 -25 33 0 6 -10 17 -22 25 -13 9
-41 40 -63 71 -22 31 -44 56 -50 57 -5 0 -21 17 -35 37 -14 20 -37 48 -52 62
-16 14 -28 31 -28 37 0 6 -9 14 -21 17 -11 3 -23 14 -26 24 -2 10 -27 34 -54
53 -27 19 -49 40 -49 46 0 7 -11 19 -25 28 -14 9 -25 23 -25 31 0 8 -6 15 -13
15 -7 0 -24 11 -39 25 -15 14 -32 25 -38 25 -5 0 -10 6 -10 13 0 18 -67 87
-85 87 -8 0 -15 5 -15 10 0 6 -9 21 -20 32 -15 17 -17 24 -8 30 18 11 25 10
61 -6z m-2247 -541 c13 -13 11 -15 -13 -20 -43 -10 -73 -27 -73 -42 0 -7 -11
-13 -24 -13 -13 0 -26 -7 -30 -15 -3 -8 -11 -15 -18 -15 -7 0 -30 -16 -51 -35
-21 -19 -47 -35 -58 -35 -10 0 -19 -3 -19 -7 0 -5 -23 -21 -50 -38 -28 -16
-50 -35 -50 -42 0 -7 -11 -13 -25 -13 -14 0 -28 -7 -31 -15 -6 -16 -87 -77
-117 -88 -11 -4 -21 -16 -24 -27 -3 -12 -14 -20 -25 -20 -11 0 -29 -11 -40
-25 -11 -14 -26 -25 -35 -25 -8 0 -24 -11 -34 -24 -10 -13 -30 -27 -44 -30
-16 -4 -25 -13 -25 -26 0 -11 -6 -20 -13 -20 -7 0 -24 -11 -39 -25 -15 -14
-32 -25 -38 -25 -5 0 -10 -4 -10 -10 0 -5 -19 -24 -42 -41 -24 -17 -59 -45
-78 -63 -19 -18 -49 -41 -65 -51 -17 -11 -44 -34 -60 -52 -17 -18 -35 -33 -42
-33 -6 0 -13 -9 -16 -20 -3 -11 -13 -23 -24 -27 -10 -4 -40 -29 -68 -56 -27
-26 -62 -56 -77 -65 -16 -9 -28 -20 -28 -24 0 -4 -7 -8 -15 -8 -8 0 -22 -15
-31 -32 -9 -18 -25 -38 -34 -45 -19 -13 -190 -183 -190 -188 0 -2 -10 -15 -22
-28 -49 -51 -168 -184 -195 -217 -15 -19 -36 -41 -45 -48 -10 -7 -18 -20 -18
-28 0 -8 -9 -14 -19 -14 -12 0 -23 -9 -27 -22 -3 -13 -21 -37 -39 -54 -17 -18
-45 -53 -61 -78 -16 -25 -35 -46 -41 -46 -7 0 -13 -8 -13 -19 0 -10 -11 -27
-25 -37 -14 -10 -25 -24 -25 -31 0 -6 -11 -20 -25 -31 -14 -11 -25 -26 -25
-33 -1 -19 -25 -49 -39 -49 -6 0 -11 -5 -11 -11 0 -6 -11 -25 -25 -43 -14 -18
-25 -37 -25 -43 0 -5 -11 -19 -25 -31 -14 -12 -25 -31 -25 -42 0 -13 -10 -24
-25 -30 -15 -6 -25 -17 -25 -29 0 -11 -4 -21 -8 -23 -10 -4 -92 -128 -92 -140
0 -5 -11 -21 -25 -36 -14 -15 -25 -31 -25 -37 0 -6 -11 -22 -25 -37 -14 -15
-25 -32 -25 -37 0 -21 -24 -61 -37 -61 -7 0 -13 -11 -13 -25 0 -24 -5 -33 -37
-70 -7 -7 -13 -20 -13 -29 0 -8 -4 -18 -10 -21 -5 -3 -10 -15 -10 -26 0 -10
-5 -19 -10 -19 -6 0 -15 -10 -20 -22 -11 -25 -32 -60 -40 -68 -3 -3 -30 -54
-59 -115 -29 -60 -75 -154 -102 -208 -27 -54 -49 -108 -50 -120 0 -12 -9 -35
-20 -52 -10 -16 -21 -37 -25 -45 -3 -8 -16 -36 -30 -62 -13 -27 -24 -54 -24
-62 0 -8 -8 -29 -17 -48 -9 -18 -20 -41 -25 -50 -4 -10 -8 -31 -8 -48 0 -16
-4 -30 -10 -30 -5 0 -10 -6 -10 -14 0 -8 -5 -16 -11 -18 -5 -2 -13 -24 -16
-48 -5 -39 -25 -85 -44 -100 -3 -3 -10 -25 -15 -49 -10 -50 -28 -64 -38 -29
-8 30 15 170 30 183 7 6 14 33 17 60 5 55 42 201 63 252 8 17 14 40 14 51 0
12 5 24 10 27 6 3 10 19 10 35 0 28 28 92 43 98 4 2 7 17 7 34 0 16 6 35 13
42 7 8 19 33 26 57 8 24 20 58 27 76 8 17 14 38 14 47 0 9 5 16 10 16 6 0 10
7 10 16 0 8 11 32 25 52 14 20 25 44 25 53 0 25 29 89 40 89 6 0 10 13 10 29
0 16 3 31 8 33 10 4 42 75 42 93 0 8 11 22 25 31 17 11 25 25 25 46 0 18 10
39 25 54 14 14 25 35 25 47 1 25 22 57 39 57 6 0 11 11 11 24 0 13 4 26 9 28
12 5 91 154 91 174 0 9 11 27 25 40 14 13 25 30 25 38 0 8 11 23 25 34 14 11
25 25 25 31 0 7 10 22 23 34 25 25 45 54 53 80 4 9 10 17 14 17 4 0 11 11 14
25 4 14 13 25 20 25 8 0 20 16 26 35 6 19 15 35 20 35 4 0 14 13 21 29 15 29
70 98 127 157 17 18 32 39 32 47 0 8 12 25 28 39 32 30 82 90 82 101 0 4 9 7
20 7 13 0 20 7 20 19 0 10 11 27 25 37 14 10 25 27 25 36 0 10 10 23 23 29 29
16 58 49 51 60 -3 5 2 12 11 15 22 9 115 100 115 114 0 5 15 18 34 27 19 8 39
26 45 39 6 13 17 24 24 24 8 0 19 11 25 25 6 14 16 25 22 25 6 0 33 23 60 50
27 28 53 50 58 50 5 0 15 11 22 25 7 14 19 25 26 25 8 0 21 11 30 25 9 14 25
25 35 25 11 0 19 6 19 13 0 7 23 26 50 42 28 16 50 33 50 37 0 4 5 8 11 8 14
0 39 25 39 39 0 6 10 11 23 11 13 0 26 9 32 22 6 13 19 25 30 27 11 2 22 6 25
10 20 26 106 91 120 91 10 0 20 9 23 20 3 12 17 22 35 26 17 4 39 14 49 23 27
25 101 72 138 90 12 5 27 16 34 25 7 9 18 16 23 16 5 0 21 11 36 25 15 14 39
25 54 25 16 0 28 5 28 11 0 14 26 39 42 40 7 0 27 9 43 19 35 23 94 50 106 50
5 0 9 7 9 15 0 8 9 15 20 15 20 0 27 2 88 33 19 9 40 17 47 17 7 0 27 11 43
25 17 14 37 25 46 25 8 0 30 9 48 20 39 24 74 26 94 5z m-2909 -91 c8 -21 -25
-82 -54 -101 -13 -9 -23 -22 -23 -30 0 -8 -11 -24 -25 -37 -14 -13 -25 -27
-25 -31 0 -4 -8 -15 -17 -24 -10 -9 -33 -39 -52 -67 -62 -92 113 -84 -1672
-84 -871 0 -1600 -3 -1620 -6 -29 -5 -38 -12 -47 -38 -9 -24 -12 -630 -12
-2422 0 -1314 -4 -2394 -8 -2401 -15 -24 -66 -33 -187 -33 -122 0 -123 0 -154
29 l-31 29 0 2579 c0 1756 3 2590 11 2616 l10 37 1950 0 c1793 0 1950 -1 1956
-16z m10511 4 c9 -9 12 -608 12 -2633 l0 -2622 -38 -11 c-35 -11 -172 -18
-197 -11 -5 1 -29 -1 -53 -5 -59 -11 -112 14 -112 52 -1 15 -2 1082 -3 2372
-2 1967 -4 2355 -16 2406 l-14 61 -61 7 c-34 3 -757 6 -1607 6 -1548 -1 -1599
0 -1599 32 0 4 -6 8 -14 8 -7 0 -21 15 -29 33 -9 17 -25 38 -36 45 -14 8 -21
23 -21 41 0 22 -6 30 -25 35 -14 4 -25 13 -25 22 0 8 -7 17 -15 20 -8 4 -15
10 -15 15 0 5 -14 24 -31 42 -34 35 -49 65 -42 85 7 17 3923 18 3941 0z
m-10939 -533 c34 -17 45 -39 26 -55 -7 -6 -16 -22 -19 -36 -4 -14 -18 -38 -31
-52 -14 -15 -25 -36 -25 -48 0 -12 -10 -32 -22 -46 -23 -25 -78 -126 -78 -141
0 -5 -7 -15 -15 -23 -8 -9 -15 -24 -15 -35 0 -10 -4 -19 -10 -19 -5 0 -10 -10
-10 -22 0 -11 -11 -36 -25 -54 -14 -18 -25 -41 -25 -52 0 -11 -11 -36 -25 -56
-14 -20 -25 -46 -25 -57 0 -10 -4 -27 -9 -37 -24 -44 -41 -87 -41 -104 0 -10
-4 -18 -8 -18 -5 0 -14 -21 -21 -47 -26 -102 -29 -114 -50 -153 -12 -22 -21
-50 -21 -61 0 -19 -21 -94 -41 -144 -4 -11 -10 -38 -13 -60 -9 -70 -24 -147
-56 -285 -5 -19 -16 -96 -27 -170 -15 -117 -18 -199 -16 -604 1 -345 4 -471
13 -476 11 -7 22 -65 41 -225 13 -118 20 -159 29 -170 5 -5 11 -28 15 -50 8
-55 36 -148 46 -160 5 -5 9 -27 9 -50 1 -22 7 -51 15 -65 8 -14 14 -37 15 -52
0 -16 5 -28 10 -28 6 0 10 -12 10 -27 0 -16 11 -48 25 -72 14 -23 25 -56 25
-71 0 -15 6 -30 13 -33 8 -3 20 -26 27 -51 7 -25 23 -67 36 -92 13 -26 24 -53
24 -59 0 -7 16 -44 35 -81 19 -38 35 -74 35 -81 0 -6 6 -18 13 -25 6 -8 25
-40 41 -73 17 -33 49 -89 71 -125 23 -36 52 -86 65 -112 13 -27 27 -48 32 -48
4 0 8 -7 8 -15 0 -9 9 -28 20 -43 22 -30 19 -55 -8 -69 -9 -4 -631 -9 -1382
-10 -751 -1 -1408 -2 -1460 -3 -52 0 -107 -1 -122 0 -15 0 -36 10 -48 22 -20
22 -20 23 -20 2345 0 1541 3 2323 10 2323 6 0 10 9 10 19 0 13 11 23 33 29 20
7 552 11 1451 11 781 1 1422 3 1424 6 7 7 10 7 41 -10z m10286 1 c39 -3 74 -5
79 -6 5 0 6 -3 3 -6 -3 -4 -2 -15 3 -24 6 -12 10 -885 10 -2341 0 -2287 0
-2323 -19 -2342 -19 -19 -49 -20 -1423 -23 -772 -2 -1437 -4 -1479 -6 -53 -2
-81 2 -93 11 -17 14 -23 81 -6 81 5 0 12 11 16 25 3 14 10 25 15 25 5 0 9 5 9
10 0 6 16 33 35 61 19 28 35 57 35 65 0 8 7 14 15 14 9 0 15 9 15 25 0 14 11
37 25 51 14 14 25 34 25 45 0 19 23 61 47 87 7 7 13 17 13 22 0 5 11 34 25 64
14 30 29 66 35 80 5 14 14 26 20 26 5 0 10 8 10 18 0 10 9 38 21 61 11 24 23
60 27 80 3 20 11 42 19 49 7 7 13 22 13 32 0 10 5 22 10 25 6 3 10 16 10 28 0
12 7 31 15 41 8 11 15 30 15 43 0 13 4 23 9 23 5 0 11 19 14 43 6 48 25 123
38 149 5 10 9 28 9 40 0 13 11 47 25 76 14 30 25 69 25 88 0 18 4 55 10 81 5
26 11 63 14 81 2 18 9 38 14 45 5 7 10 48 11 91 2 44 7 88 12 98 19 35 31 213
36 502 3 181 1 297 -6 310 -5 12 -12 79 -15 149 -3 70 -10 136 -16 147 -5 10
-10 43 -10 73 0 29 -9 83 -20 118 -11 35 -24 98 -29 139 -5 41 -17 95 -26 120
-10 25 -21 65 -26 90 -4 25 -15 70 -24 100 -9 30 -19 66 -22 80 -2 14 -8 34
-13 45 -26 58 -40 99 -40 116 0 11 -3 19 -7 19 -8 0 -35 82 -48 143 -3 15 -14
36 -25 47 -11 11 -20 24 -20 28 0 5 -11 30 -24 58 -13 27 -29 66 -37 87 -7 20
-19 37 -26 37 -8 0 -13 12 -13 32 0 18 -11 45 -25 64 -14 18 -25 43 -25 56 0
13 -11 31 -25 42 -14 10 -25 27 -25 37 0 11 -4 19 -10 19 -5 0 -10 6 -10 14 0
8 -6 21 -12 28 -20 20 -68 121 -68 140 0 12 14 18 63 25 65 8 2701 8 2822 -1z
m-5612 -147 c15 -21 27 -44 27 -49 0 -6 5 -10 10 -10 6 0 10 -6 10 -14 0 -7 7
-19 15 -26 8 -7 15 -21 15 -32 0 -10 6 -21 14 -24 8 -3 31 -39 50 -79 19 -40
40 -76 45 -79 5 -4 12 -20 16 -36 4 -17 11 -30 16 -30 5 0 9 -7 9 -15 0 -9 9
-28 20 -43 10 -15 29 -56 41 -92 12 -36 25 -69 30 -74 5 -6 9 -18 9 -28 0 -10
5 -18 10 -18 6 0 10 -9 10 -19 0 -11 7 -26 15 -35 8 -8 15 -31 15 -50 0 -20 4
-36 10 -36 5 0 12 -16 16 -35 3 -19 10 -35 15 -35 5 0 9 -11 9 -25 0 -14 4
-25 10 -25 5 0 12 -16 16 -35 3 -19 10 -35 15 -35 5 0 9 -13 9 -29 0 -33 19
-93 33 -102 9 -6 14 -26 39 -141 7 -32 16 -58 20 -58 4 0 8 -14 8 -31 0 -17 4
-38 10 -48 5 -10 14 -49 20 -86 13 -84 2 -105 -75 -141 -30 -13 -55 -29 -55
-34 0 -6 -8 -10 -19 -10 -10 0 -30 -11 -45 -25 -15 -14 -31 -25 -37 -25 -5 0
-22 -11 -37 -25 -15 -14 -33 -25 -40 -25 -7 0 -19 -6 -26 -12 -7 -7 -28 -24
-46 -38 -18 -14 -39 -31 -46 -37 -7 -7 -17 -13 -22 -13 -5 0 -21 -10 -35 -22
-14 -13 -40 -34 -57 -48 -36 -28 -132 -111 -140 -121 -3 -4 -15 -9 -27 -13
-14 -4 -23 -15 -23 -27 0 -14 -7 -19 -25 -19 -15 0 -25 -6 -25 -14 0 -8 -18
-29 -40 -46 -22 -18 -47 -45 -56 -61 -8 -17 -23 -29 -34 -29 -15 0 -20 -7 -20
-25 0 -20 -5 -25 -25 -25 -14 0 -25 -6 -25 -13 0 -7 -12 -24 -27 -38 -36 -32
-73 -77 -73 -87 0 -5 -11 -15 -25 -22 -14 -7 -25 -19 -25 -27 0 -7 -4 -13 -10
-13 -5 0 -16 -12 -24 -27 -8 -16 -37 -52 -65 -82 -28 -30 -51 -63 -51 -73 0
-13 -7 -18 -25 -18 -20 0 -25 -5 -25 -23 0 -16 -9 -28 -25 -35 -14 -6 -25 -17
-25 -24 0 -7 -14 -29 -30 -48 -17 -19 -39 -46 -50 -58 -11 -13 -20 -29 -20
-36 0 -7 -11 -23 -25 -36 -14 -13 -25 -34 -25 -47 0 -13 -5 -23 -11 -23 -15 0
-39 -26 -39 -42 0 -7 -12 -24 -25 -37 -14 -13 -25 -28 -25 -35 0 -6 -11 -23
-25 -38 -14 -15 -25 -32 -25 -37 0 -6 -11 -18 -25 -27 -14 -9 -25 -25 -25 -35
0 -11 -4 -19 -8 -19 -5 0 -17 -17 -28 -37 -10 -21 -21 -40 -24 -43 -14 -13
-60 -91 -60 -100 0 -6 -7 -13 -15 -16 -8 -4 -15 -16 -15 -28 0 -11 -11 -34
-25 -50 -14 -16 -25 -35 -25 -42 0 -7 -6 -19 -13 -26 -26 -27 -57 -77 -57 -92
0 -9 -3 -16 -8 -16 -4 0 -17 -22 -30 -50 -13 -27 -27 -50 -32 -50 -6 0 -10
-11 -10 -25 0 -14 -3 -25 -7 -25 -10 0 -43 -58 -43 -75 0 -8 -6 -18 -12 -22
-19 -12 -38 -49 -38 -73 0 -12 -8 -30 -19 -41 -10 -11 -37 -56 -60 -100 -23
-45 -48 -88 -56 -96 -8 -8 -15 -28 -15 -44 0 -16 -3 -29 -7 -29 -14 0 -43 -61
-43 -90 0 -16 -7 -30 -15 -34 -8 -3 -15 -13 -15 -21 0 -33 -32 -50 -104 -56
-39 -3 -374 -7 -744 -7 l-672 -1 -16 24 c-13 20 -14 32 -4 72 6 26 15 71 20
98 12 72 20 95 36 95 10 0 14 12 14 39 0 21 6 44 13 50 8 6 19 30 26 53 7 24
20 55 28 71 8 15 11 27 6 27 -4 0 -2 4 5 9 8 4 16 28 19 52 3 24 9 46 13 49
17 13 40 77 40 112 0 24 5 38 13 38 15 0 37 46 37 77 0 13 5 23 10 23 6 0 10
6 10 14 0 7 14 38 30 69 17 31 30 61 30 67 0 16 49 118 60 125 6 3 10 17 10
29 0 13 7 29 15 36 8 7 15 20 16 29 0 9 9 30 20 46 26 41 49 91 49 108 0 8 7
20 15 27 8 7 15 21 15 31 0 11 3 19 8 19 11 0 62 85 62 104 0 16 6 26 38 61 6
7 12 18 12 24 0 13 20 50 38 69 6 7 12 20 12 28 0 8 5 14 10 14 6 0 10 8 10
19 0 10 7 24 15 31 8 7 15 20 15 30 0 10 7 20 15 24 8 3 24 25 36 50 11 25 27
50 35 57 8 6 14 19 14 29 0 9 11 34 25 54 14 20 25 41 25 46 0 6 5 10 11 10 5
0 19 20 30 45 11 25 29 51 40 58 10 6 19 19 19 28 0 9 9 19 20 22 12 3 22 17
26 35 3 16 17 42 30 57 13 16 24 34 24 42 0 7 5 13 10 13 6 0 10 6 10 14 0 7
18 32 40 54 22 22 40 49 40 59 0 11 11 29 25 39 14 10 25 26 25 35 0 8 23 39
50 68 28 29 50 57 50 62 0 6 11 20 25 33 14 13 25 28 25 33 0 5 11 20 25 33
14 13 25 27 25 32 0 10 11 23 52 69 15 16 25 29 23 29 -3 0 3 9 13 19 32 37
42 50 42 61 0 5 6 10 13 10 20 1 50 31 85 86 18 28 41 59 52 69 11 10 20 24
20 31 0 7 10 14 22 16 13 2 24 11 26 21 2 11 28 43 58 74 30 30 62 65 70 79 9
13 22 24 29 24 6 0 20 17 31 37 20 39 38 63 49 63 3 0 79 74 169 165 90 91
169 165 175 165 6 0 11 4 11 10 0 12 136 147 192 191 24 18 59 48 78 67 19 18
47 41 62 50 15 8 29 24 31 34 3 10 14 18 26 18 12 0 21 6 21 15 0 8 4 15 8 15
4 0 28 18 52 40 25 22 66 54 92 72 26 18 48 39 48 46 0 6 8 12 19 12 10 0 27
11 37 25 10 14 26 25 35 25 9 0 30 16 48 35 17 19 38 35 46 35 8 0 15 7 15 15
0 11 12 15 48 15 43 -1 49 -4 75 -41z m908 -1859 c8 0 32 -11 54 -25 23 -14
56 -25 78 -25 26 0 37 -4 37 -15 0 -8 8 -15 18 -15 9 0 35 -7 57 -16 22 -8 48
-17 58 -21 9 -3 17 -9 17 -14 0 -4 21 -11 48 -14 26 -4 66 -18 89 -31 23 -13
53 -24 67 -24 13 0 31 -7 40 -15 8 -8 24 -15 35 -15 11 0 23 -4 26 -10 3 -5
21 -10 40 -10 19 0 37 -4 40 -10 3 -5 17 -10 30 -10 13 0 28 -6 32 -14 4 -7
24 -16 43 -19 70 -10 149 -34 165 -51 9 -9 24 -16 33 -16 19 0 139 -28 167
-39 51 -21 104 -35 150 -42 78 -12 145 -30 145 -40 0 -5 20 -9 45 -9 25 0 53
-4 63 -10 25 -14 129 -30 267 -41 66 -5 122 -14 123 -19 2 -6 11 -10 20 -10
12 0 13 -3 5 -8 -6 -4 -16 -20 -22 -35 l-11 -27 -295 0 c-162 0 -295 4 -295 8
0 11 -82 33 -147 39 -29 3 -53 9 -53 13 0 4 -22 11 -50 15 -27 4 -50 10 -50
15 0 4 -21 10 -47 13 -26 3 -49 10 -51 16 -2 6 -11 11 -20 11 -23 0 -95 24
-167 55 -16 7 -41 16 -55 19 -14 3 -35 14 -47 26 -15 13 -36 20 -62 20 -22 0
-44 6 -48 13 -4 7 -24 19 -43 26 -19 8 -58 24 -87 37 -28 13 -57 24 -62 24 -6
0 -11 4 -11 9 0 12 -57 41 -80 41 -9 0 -30 11 -46 25 -16 14 -39 25 -51 25
-13 0 -23 6 -23 13 0 7 -16 19 -35 26 -35 12 -126 67 -157 96 -10 8 -26 15
-36 15 -24 0 -42 19 -42 46 0 17 7 24 28 26 15 2 34 -2 43 -9 8 -7 22 -13 30
-13z m-1625 -1480 c5 -5 30 -14 54 -19 93 -20 140 -35 140 -43 0 -4 13 -8 29
-8 17 0 32 -4 36 -9 3 -5 19 -12 35 -16 17 -4 30 -11 30 -16 0 -5 15 -9 34 -9
19 0 38 -4 41 -10 3 -5 14 -10 24 -10 10 0 24 -6 30 -14 6 -7 34 -16 62 -18
29 -3 62 -14 79 -27 17 -12 44 -21 64 -21 19 0 37 -4 41 -9 3 -6 26 -13 50
-17 25 -3 45 -10 45 -14 0 -4 12 -10 28 -13 31 -5 131 -39 215 -73 32 -13 78
-24 102 -24 29 0 45 -5 49 -15 3 -8 14 -15 24 -15 10 0 22 -4 27 -9 6 -5 28
-11 50 -14 78 -11 105 -19 105 -33 0 -10 14 -14 50 -14 28 0 50 -4 50 -9 0 -6
20 -13 45 -17 25 -3 48 -10 51 -15 3 -5 21 -9 40 -9 19 0 34 -4 34 -9 0 -12
109 -41 158 -41 25 0 61 -10 89 -24 27 -14 82 -32 123 -41 41 -8 131 -29 200
-46 69 -17 138 -33 154 -35 16 -3 39 -10 52 -14 12 -5 50 -12 83 -16 34 -4 64
-11 67 -15 3 -5 22 -9 42 -9 20 0 91 -11 157 -25 68 -14 153 -25 198 -25 102
0 157 -25 157 -71 0 -34 -16 -70 -36 -82 -8 -4 -14 -15 -14 -24 0 -9 -11 -26
-25 -39 -14 -13 -25 -27 -25 -33 0 -5 -11 -18 -24 -28 -13 -11 -25 -28 -27
-39 -2 -10 -14 -23 -27 -29 -13 -6 -22 -19 -22 -31 0 -15 -11 -27 -36 -39 -33
-15 -145 -17 -1482 -20 -1432 -2 -1448 -2 -1502 18 -30 11 -84 41 -120 67 -36
26 -75 50 -87 54 -20 6 -76 45 -115 79 -9 8 -25 18 -36 21 -11 4 -27 15 -37
26 -10 11 -25 20 -34 20 -17 0 -51 33 -51 50 0 6 -4 10 -9 10 -6 0 -7 10 -4
23 3 12 7 36 10 54 3 17 13 40 23 50 10 11 21 30 25 44 4 13 18 38 31 56 13
17 24 36 24 41 0 5 11 17 25 26 17 11 25 26 25 45 0 17 11 42 25 59 14 17 25
35 25 41 0 6 4 11 8 11 4 0 14 17 22 38 13 37 49 94 63 100 4 2 7 8 7 14 0 5
11 24 23 41 13 18 30 47 37 65 7 17 19 32 26 32 8 0 14 8 14 18 0 9 11 29 25
44 14 15 25 34 25 41 0 16 67 77 85 77 6 0 15 -4 21 -10z"/>
<path d="M9165 12374 c-22 -9 -51 -18 -65 -21 -14 -4 -34 -17 -45 -30 -11 -12
-28 -23 -37 -23 -9 0 -19 -11 -22 -24 -3 -13 -15 -26 -26 -29 -12 -3 -20 -13
-20 -26 0 -12 -6 -21 -15 -21 -8 0 -15 -9 -15 -20 0 -11 -4 -28 -9 -38 -27
-54 -31 -131 -31 -632 0 -335 4 -521 10 -525 6 -3 10 -14 10 -23 0 -27 72
-162 86 -162 8 0 14 -6 14 -13 0 -8 12 -20 28 -28 15 -7 44 -24 64 -38 40 -25
91 -30 231 -22 52 3 70 8 77 22 6 10 20 21 32 25 12 4 31 17 41 30 10 13 24
24 30 24 7 0 30 37 52 83 l39 82 7 245 c3 135 4 387 2 560 -5 377 -8 391 -106
495 -34 36 -67 65 -74 65 -7 0 -13 5 -13 10 0 6 -10 10 -23 10 -13 0 -27 4
-32 9 -13 11 -97 31 -127 31 -13 -1 -41 -8 -63 -16z m135 -261 c69 -47 70 -60
70 -585 0 -485 -1 -499 -52 -550 -23 -24 -35 -28 -83 -28 -48 0 -59 4 -83 28
-54 56 -53 40 -50 562 3 441 5 488 21 520 30 61 125 89 177 53z"/>
<path d="M13442 12379 c-23 -3 -48 -11 -54 -17 -7 -7 -21 -12 -32 -12 -37 0
-136 -90 -161 -147 -9 -21 -23 -53 -31 -72 -11 -24 -14 -69 -13 -167 1 -119 4
-138 25 -180 13 -26 24 -55 24 -65 0 -10 11 -26 25 -37 14 -11 25 -27 25 -36
0 -9 5 -16 10 -16 6 0 10 -7 10 -15 0 -8 7 -15 15 -15 8 0 15 -5 15 -12 0 -14
124 -138 139 -138 6 0 11 -6 11 -13 0 -7 12 -24 28 -38 91 -84 156 -186 168
-266 7 -49 -11 -122 -33 -136 -7 -4 -13 -17 -13 -27 0 -13 -7 -20 -18 -20 -10
0 -23 -5 -28 -10 -15 -15 -74 -15 -117 0 -28 11 -37 20 -37 37 0 13 -6 23 -13
23 -7 0 -19 21 -26 48 -27 98 -27 98 -94 113 -46 9 -62 10 -65 1 -2 -7 -19
-12 -37 -12 -25 0 -34 -5 -39 -22 -7 -30 4 -128 15 -128 5 0 9 -13 9 -29 0
-16 10 -39 25 -55 14 -15 25 -34 25 -42 0 -24 32 -73 52 -80 9 -3 20 -14 23
-25 4 -10 11 -19 16 -19 6 0 27 -11 47 -25 35 -24 44 -25 170 -25 l133 0 54
35 c30 19 55 42 55 50 0 9 9 15 25 15 19 0 25 5 25 21 0 23 30 79 42 79 4 0 8
14 8 31 0 17 5 40 11 51 14 26 12 212 -1 216 -6 2 -10 22 -10 43 0 26 -9 53
-25 77 -14 20 -25 45 -25 54 0 10 -4 18 -8 18 -5 0 -14 12 -21 26 -12 27 -32
50 -206 227 -61 62 -114 120 -118 131 -4 10 -15 20 -26 23 -15 4 -20 19 -26
71 -9 82 -9 164 0 215 5 28 13 39 31 43 13 3 24 10 24 15 0 13 92 11 123 -3
15 -7 27 -18 27 -25 0 -6 6 -24 14 -40 7 -15 20 -41 27 -58 14 -28 19 -30 78
-33 36 -2 69 2 74 7 6 6 21 11 34 11 22 0 23 3 23 75 0 41 -4 75 -9 75 -5 0
-12 11 -15 25 -4 14 -11 25 -16 25 -6 0 -10 11 -10 24 0 16 -7 26 -21 29 -11
3 -23 14 -26 24 -8 30 -61 65 -106 70 -23 4 -45 11 -49 16 -9 14 -102 24 -156
16z"/>
<path d="M14715 12380 c-90 -15 -160 -34 -179 -50 -60 -46 -133 -135 -139
-167 -3 -15 -13 -48 -23 -73 -17 -40 -19 -78 -19 -355 0 -511 6 -718 22 -761
8 -22 17 -52 20 -69 6 -31 24 -55 42 -55 6 0 11 -11 11 -25 0 -14 5 -25 10
-25 6 0 22 -11 36 -25 14 -14 31 -25 39 -25 8 0 15 -4 15 -9 0 -5 10 -13 23
-17 12 -4 25 -11 28 -16 8 -13 238 -16 247 -3 4 6 26 19 49 30 23 11 47 30 52
43 6 12 20 22 31 22 11 0 20 6 20 14 0 8 11 28 25 44 14 17 25 39 25 51 0 12
5 21 10 21 6 0 10 14 10 30 0 18 6 33 15 36 12 5 15 29 15 133 -1 111 -3 129
-21 150 -18 22 -26 24 -110 23 -54 0 -96 -5 -104 -12 -12 -10 -15 -41 -15
-139 0 -130 -3 -143 -32 -154 -10 -3 -18 -16 -18 -27 0 -18 -6 -20 -67 -20
-63 0 -71 3 -108 34 l-40 34 -3 483 c-2 316 0 490 7 504 6 11 12 33 13 49 2
16 12 34 23 40 11 6 23 15 27 20 6 9 47 12 113 7 24 -1 36 -11 58 -45 24 -39
27 -52 27 -135 0 -134 6 -141 125 -141 114 0 119 4 124 112 3 78 -22 222 -41
234 -4 3 -8 12 -8 21 0 9 -11 26 -25 39 -14 13 -25 32 -25 44 0 11 -4 20 -10
20 -5 0 -23 12 -39 28 -51 46 -60 52 -80 52 -11 0 -35 9 -53 20 -18 11 -37 19
-43 19 -5 -1 -32 -5 -60 -9z"/>
<path d="M16510 12379 c-30 -5 -75 -19 -99 -31 -47 -23 -126 -98 -136 -129 -4
-11 -11 -19 -16 -19 -5 0 -9 -11 -9 -24 0 -14 -12 -57 -26 -97 -15 -42 -22
-74 -16 -78 5 -3 12 -39 15 -79 7 -89 45 -210 70 -220 4 -2 7 -10 7 -17 0 -14
23 -45 73 -97 15 -16 27 -32 27 -35 0 -4 29 -34 65 -68 36 -35 65 -67 65 -73
0 -5 13 -12 29 -15 19 -4 31 -14 35 -30 3 -13 21 -40 39 -59 18 -20 40 -55 49
-79 40 -117 41 -119 28 -180 -7 -33 -16 -59 -21 -59 -4 0 -10 -9 -14 -19 -3
-11 -25 -27 -49 -36 -36 -14 -50 -15 -86 -5 -45 12 -90 52 -90 79 0 10 -4 21
-8 26 -5 6 -17 32 -27 60 -30 81 -37 84 -151 63 l-64 -11 0 -74 c0 -41 4 -73
10 -73 5 0 12 -11 16 -25 3 -14 10 -25 15 -25 5 0 9 -8 9 -17 -1 -30 54 -131
73 -136 10 -3 21 -15 24 -26 3 -14 13 -21 29 -21 15 0 24 -6 24 -15 0 -8 8
-15 18 -15 10 0 23 -5 29 -11 8 -8 56 -12 135 -12 139 1 166 10 235 77 21 20
41 36 45 36 4 0 8 6 8 14 0 7 7 19 15 26 8 7 15 21 15 31 0 11 4 19 8 19 18 0
42 114 42 201 0 72 -5 101 -25 151 -14 34 -25 70 -25 80 0 10 -4 18 -9 18 -5
0 -13 9 -16 21 -8 23 -29 52 -57 78 -10 8 -18 23 -18 32 0 9 -11 21 -25 27
-14 6 -25 16 -25 21 0 11 -58 71 -68 71 -4 0 -16 11 -26 25 -10 14 -27 25 -37
25 -12 0 -19 7 -19 18 0 10 -27 47 -60 83 -33 35 -60 71 -60 79 0 8 -7 28 -15
44 -18 35 -20 154 -2 193 14 32 42 63 57 63 6 0 10 5 10 10 0 6 24 10 54 10
68 0 116 -35 116 -86 0 -42 9 -64 26 -64 8 0 14 -4 14 -10 0 -5 24 -10 54 -10
30 0 58 5 61 10 3 6 19 10 35 10 30 0 40 15 40 59 0 34 -29 115 -58 161 -12
19 -22 38 -22 42 0 4 -11 10 -24 14 -15 3 -26 14 -28 27 -2 14 -16 25 -48 35
-25 8 -64 23 -87 34 -46 20 -69 21 -153 7z"/>
<path d="M4190 12365 c-14 -8 -31 -14 -39 -15 -20 0 -101 -69 -101 -85 0 -7
-9 -15 -21 -18 -11 -3 -23 -15 -26 -26 -3 -12 -9 -21 -13 -21 -12 0 -38 -81
-49 -156 -13 -87 -13 -730 -1 -944 7 -115 14 -163 27 -187 10 -18 21 -33 25
-33 5 0 8 -7 8 -15 0 -22 30 -65 45 -65 7 0 20 -11 29 -25 9 -14 21 -25 27
-25 6 0 26 -12 46 -27 33 -25 41 -27 146 -27 87 -1 119 3 144 16 42 24 163
138 163 155 0 15 29 64 43 74 12 8 26 301 15 314 -4 5 -8 17 -8 26 0 13 -14
18 -69 23 -92 9 -140 0 -146 -28 -2 -11 -6 -61 -8 -111 -9 -179 -34 -219 -137
-218 -31 0 -56 5 -58 12 -2 6 -10 11 -18 11 -8 0 -14 7 -14 15 0 8 -6 15 -13
15 -32 0 -37 74 -36 537 0 408 2 463 17 503 22 57 69 90 129 90 69 0 99 -21
107 -74 4 -25 11 -48 16 -51 5 -3 9 -37 8 -74 -1 -38 4 -83 11 -100 l13 -31
98 0 97 0 7 71 c12 131 -4 248 -44 321 -6 10 -10 25 -10 33 0 9 -8 18 -17 22
-10 3 -34 22 -53 42 -36 37 -54 48 -128 75 -54 20 -178 21 -212 1z"/>
<path d="M4977 12363 c-3 -5 -25 -10 -49 -12 -85 -5 -78 66 -78 -821 l0 -786
24 -21 c23 -20 35 -21 293 -22 330 -1 317 -6 314 120 -3 141 13 129 -175 129
-155 0 -162 1 -191 24 l-30 24 0 654 c-1 359 -4 663 -9 676 -5 17 -15 22 -40
22 -17 0 -37 5 -43 11 -6 6 -13 7 -16 2z"/>
<path d="M6173 12356 c-12 -6 -24 -22 -27 -36 -2 -14 -4 -303 -4 -643 1 -339
-2 -620 -6 -624 -3 -3 -6 -15 -6 -25 0 -11 -13 -33 -29 -49 -27 -27 -35 -29
-98 -28 -64 0 -70 2 -92 31 -35 44 -40 133 -40 784 -1 453 -3 554 -15 569 -11
15 -29 20 -82 23 -38 2 -81 -1 -96 -7 l-28 -11 0 -662 c0 -648 0 -664 21 -718
29 -76 79 -156 106 -171 13 -7 23 -18 23 -26 0 -7 5 -13 11 -13 6 0 26 -12 46
-27 34 -26 40 -27 161 -27 87 0 127 4 130 12 2 7 12 12 23 12 11 0 22 7 25 15
4 8 13 15 20 15 19 0 84 65 84 85 0 8 4 15 10 15 5 0 12 11 16 25 3 14 10 25
15 25 5 0 9 11 9 25 0 13 10 41 22 62 l22 38 -2 635 c-1 349 -4 646 -7 660 -3
15 -16 30 -33 37 -35 14 -150 14 -179 -1z"/>
<path d="M6648 12356 c-42 -8 -48 -12 -48 -35 0 -14 -1 -379 -1 -811 0 -730 2
-786 18 -797 12 -9 70 -13 207 -13 183 0 195 2 276 29 60 20 88 35 95 50 6 12
19 21 32 21 13 0 23 5 23 12 0 7 10 23 23 37 13 15 36 55 51 90 26 62 27 69
26 246 -1 161 -4 185 -20 202 -9 11 -27 41 -38 66 -12 26 -26 47 -31 47 -6 0
-11 6 -11 14 0 8 -9 21 -19 28 -27 19 -29 43 -6 65 11 10 29 35 39 56 11 20
22 37 26 37 4 0 11 20 14 45 4 24 11 47 17 50 25 16 1 278 -31 337 -6 10 -10
24 -10 31 0 8 -11 27 -25 43 -14 16 -25 32 -25 37 0 4 -6 7 -14 7 -7 0 -16 8
-19 18 -2 10 -31 28 -66 42 -33 14 -61 28 -61 33 0 4 -13 7 -28 7 -16 0 -32 3
-36 8 -11 10 -302 9 -358 -2z m367 -268 c34 -12 49 -43 68 -141 16 -85 -14
-217 -50 -217 -6 0 -18 -6 -25 -13 -20 -21 -85 -30 -122 -17 -32 10 -33 13
-42 83 -4 40 -8 125 -9 190 0 94 3 120 15 128 17 11 119 3 165 -13z m2 -665
c29 -14 53 -31 53 -37 0 -6 8 -24 17 -41 20 -36 26 -261 7 -273 -6 -4 -15 -21
-18 -39 -5 -23 -17 -36 -42 -48 -19 -9 -34 -20 -34 -25 0 -6 -30 -10 -68 -10
-103 0 -101 -5 -100 249 0 117 4 211 9 211 5 0 9 7 9 16 0 8 5 12 10 9 6 -3
10 -1 10 4 0 22 93 12 147 -16z"/>
<path d="M7880 12358 c0 -5 -7 -8 -15 -8 -18 0 -21 -54 -5 -94 12 -32 30 -130
40 -216 13 -117 33 -235 41 -240 4 -3 9 -32 12 -65 2 -33 14 -103 25 -155 12
-52 22 -120 22 -151 0 -31 11 -100 25 -153 14 -53 25 -120 25 -149 0 -28 5
-70 11 -92 13 -48 27 -136 37 -227 11 -101 23 -108 179 -108 109 0 125 2 143
20 11 11 21 30 24 42 22 118 26 150 26 185 0 24 6 46 15 53 10 9 15 32 15 74
0 33 5 79 11 101 13 49 27 127 39 220 4 39 18 103 29 144 11 43 21 111 22 160
1 53 6 92 14 101 7 8 16 38 19 65 4 28 10 82 15 120 5 39 11 79 14 90 4 11 8
38 10 60 3 22 10 67 17 100 7 34 10 73 7 87 -7 26 -9 27 -96 30 -49 2 -96 2
-104 0 -19 -4 -28 -29 -32 -86 -4 -58 -20 -147 -44 -246 -11 -47 -21 -115 -21
-152 0 -38 -4 -68 -9 -68 -5 0 -12 -43 -16 -95 -4 -52 -11 -97 -16 -101 -5 -3
-9 -29 -9 -58 0 -47 -18 -146 -49 -271 -12 -48 -11 -43 -11 -53 0 -21 -31 -6
-35 17 -3 14 -12 55 -21 91 -23 102 -25 111 -31 190 -3 41 -14 125 -26 185
-11 61 -22 150 -24 200 -3 49 -8 92 -12 95 -8 5 -26 131 -37 250 -6 66 -19 96
-48 106 -28 9 -176 11 -176 2z"/>
<path d="M9840 12353 l-23 -12 1 -803 2 -803 21 -16 c18 -13 62 -16 289 -18
283 -2 268 -5 308 43 7 9 12 46 12 94 0 113 2 112 -201 112 -130 1 -168 4
-184 16 -20 15 -20 26 -19 627 1 337 -2 614 -7 617 -4 3 -2 24 4 47 12 46 -3
93 -30 93 -7 0 -13 4 -13 9 0 14 -131 9 -160 -6z"/>
<path d="M10650 12361 c0 -3 -10 -11 -22 -16 -21 -9 -23 -16 -22 -85 1 -41 1
-160 1 -265 0 -161 2 -1101 3 -1217 0 -24 7 -45 20 -58 19 -19 33 -20 305 -20
l286 0 25 25 c23 23 25 31 22 110 -2 47 -6 85 -10 85 -5 0 -8 7 -8 15 0 13
-27 15 -182 15 -183 1 -218 7 -218 39 0 6 -4 11 -10 11 -6 0 -10 65 -10 175 0
96 4 175 8 175 4 0 8 10 9 21 1 12 4 24 7 27 3 3 63 7 133 8 161 4 163 6 163
133 0 54 -5 92 -12 99 -8 8 -56 12 -150 12 -116 0 -138 2 -138 15 0 8 -5 15
-11 15 -17 0 -6 407 10 423 8 8 75 14 201 17 103 3 190 7 193 10 26 29 41 190
17 190 -5 0 -10 6 -10 14 0 8 -12 17 -27 21 -34 10 -573 15 -573 6z"/>
<path d="M11447 12355 c-16 -11 -17 -78 -17 -807 l0 -795 23 -25 c20 -21 33
-25 90 -27 119 -3 107 -98 107 826 0 715 -2 803 -16 817 -8 9 -18 16 -22 16
-4 0 -39 2 -78 4 -45 2 -77 -1 -87 -9z"/>
<path d="M12323 12355 c-19 -8 -23 -18 -23 -55 -1 -25 0 -389 0 -809 1 -638 3
-765 15 -777 11 -11 70 -14 308 -14 352 0 327 -10 327 131 0 61 -4 99 -12 107
-8 8 -66 12 -194 12 l-182 0 -18 27 c-15 23 -18 56 -22 188 -5 204 -1 224 58
241 54 16 212 18 227 3 16 -16 35 99 27 161 -10 76 -18 80 -144 80 -103 0
-111 1 -136 25 -28 26 -28 26 -32 190 -2 104 0 176 7 198 16 48 52 58 219 56
99 0 149 3 169 13 28 13 28 14 28 112 l0 100 -30 9 c-42 12 -564 14 -592 2z"/>
<path d="M15536 12355 c-57 -12 -64 -24 -65 -102 -1 -29 -5 -53 -11 -53 -5 0
-10 -23 -10 -52 0 -50 -6 -95 -31 -223 -7 -33 -15 -94 -19 -135 -5 -41 -17
-115 -29 -165 -11 -49 -20 -120 -21 -156 0 -36 -3 -69 -7 -73 -5 -4 -14 -49
-21 -99 -14 -101 -22 -153 -47 -297 -9 -52 -20 -128 -26 -169 -5 -41 -11 -76
-13 -79 -3 -2 5 -15 17 -28 18 -21 29 -24 93 -24 81 0 104 6 104 26 0 8 4 14
8 14 11 0 42 177 42 243 0 42 4 59 15 63 8 4 13 10 10 14 -8 13 55 29 120 31
64 1 120 -14 110 -31 -3 -5 0 -10 8 -10 25 0 35 -50 40 -185 3 -82 9 -131 16
-133 6 -2 17 -10 24 -17 18 -17 160 -19 187 -3 22 14 27 65 10 96 -5 9 -14 62
-20 117 -6 55 -14 136 -19 180 -5 44 -18 118 -29 165 -23 94 -42 221 -42 278
0 20 -7 55 -15 77 -8 22 -14 63 -15 92 0 28 -7 87 -15 130 -8 43 -15 95 -15
116 0 20 -4 37 -10 37 -5 0 -10 21 -10 46 0 25 -4 53 -10 63 -5 10 -14 53 -20
97 -22 153 -17 142 -64 150 -59 12 -163 11 -220 -1z m142 -610 c7 -27 17 -90
22 -140 4 -49 13 -125 19 -169 11 -71 10 -79 -6 -92 -26 -20 -100 -18 -122 4
-28 27 -30 44 -14 123 8 41 18 117 23 169 5 52 11 104 14 115 2 11 5 26 5 33
1 8 10 12 23 10 17 -2 25 -15 36 -53z"/>
<path d="M17151 12352 c-28 -11 -31 -16 -32 -60 0 -26 -2 -65 -4 -86 -3 -22 1
-46 7 -53 6 -7 7 -13 2 -13 -5 0 -2 -5 6 -10 8 -5 53 -10 100 -10 51 0 91 -6
101 -13 9 -7 19 -32 23 -56 4 -25 7 -325 7 -667 l0 -622 28 -31 c26 -28 35
-31 89 -31 39 0 71 6 91 18 l31 17 0 682 0 681 31 11 c18 6 62 11 98 11 77 0
88 6 100 46 13 47 1 177 -18 191 -23 18 -616 14 -660 -5z"/>
<path d="M18060 12359 c0 -5 -7 -9 -15 -9 -8 0 -16 -6 -16 -12 -1 -7 -3 -367
-4 -800 l-4 -787 22 -25 22 -25 289 -1 c345 -1 325 -8 325 123 0 139 19 127
-195 127 -123 0 -184 4 -184 11 0 5 -4 8 -9 4 -5 -3 -12 4 -16 15 -3 11 -11
20 -16 20 -5 0 -9 81 -9 194 0 159 3 195 14 199 28 11 132 21 198 19 63 -2 68
0 87 27 27 37 28 132 2 176 l-18 30 -123 3 c-98 2 -128 6 -142 19 -16 14 -18
36 -18 214 l0 198 26 20 c25 19 40 21 199 21 211 0 205 -3 205 123 0 116 -1
117 -143 118 -132 1 -261 -1 -299 -6 -15 -2 -30 0 -33 5 -7 12 -145 11 -145
-1z"/>
<path d="M18877 12356 l-27 -10 0 -806 c0 -769 1 -808 18 -823 16 -15 51 -17
293 -17 226 1 277 3 294 15 17 14 19 27 18 110 -1 70 -6 99 -17 110 -12 12
-46 15 -178 15 -157 0 -164 1 -183 23 -20 21 -20 38 -18 681 1 379 -2 666 -7
676 -18 33 -130 48 -193 26z"/>
<path d="M19690 12359 c-18 -4 -36 -13 -41 -20 -4 -7 -9 -308 -10 -669 -2
-360 -3 -715 -3 -789 -1 -124 1 -135 21 -157 l22 -24 275 0 275 0 21 30 c22
30 22 33 4 178 l-5 42 -167 0 c-149 0 -170 2 -192 20 l-25 19 1 651 c1 431 -2
660 -9 679 -9 24 -17 28 -73 37 -34 5 -77 6 -94 3z"/>
<path d="M2491 9439 c-6 -18 -11 -99 -11 -181 0 -174 8 -202 62 -206 18 -1 42
-6 53 -12 62 -29 103 -40 151 -40 39 0 54 -4 54 -13 0 -8 17 -19 38 -25 20 -7
62 -19 92 -28 30 -9 59 -21 65 -25 5 -5 18 -9 28 -9 20 0 169 -50 177 -60 11
-12 119 -40 157 -40 27 0 43 -5 47 -15 3 -8 15 -15 26 -15 11 0 28 -4 38 -9 9
-5 42 -15 72 -21 30 -7 60 -19 68 -26 7 -8 27 -15 43 -15 36 -2 41 -3 54 -10
9 -6 61 -21 77 -23 3 -1 10 -4 14 -8 4 -5 17 -8 29 -8 12 0 45 -11 73 -25 29
-14 59 -25 68 -25 22 0 118 -33 122 -42 2 -5 20 -8 40 -8 21 0 75 -14 122 -31
47 -17 100 -35 118 -40 17 -6 32 -14 32 -19 0 -6 18 -10 40 -10 22 0 40 -4 40
-9 0 -5 16 -12 35 -15 19 -4 35 -10 35 -15 0 -4 21 -8 46 -10 25 -1 53 -6 62
-10 10 -4 32 -15 50 -24 19 -9 47 -17 63 -17 16 0 29 -4 29 -9 0 -5 18 -12 40
-16 48 -8 87 -26 117 -55 12 -11 27 -20 33 -20 5 0 10 -9 10 -19 0 -22 31 -81
43 -81 4 0 7 -6 7 -13 0 -7 11 -24 25 -39 14 -15 25 -32 25 -38 0 -5 5 -10 10
-10 6 0 10 -6 10 -14 0 -8 7 -22 16 -31 28 -27 64 -85 64 -101 0 -8 11 -20 25
-26 14 -6 26 -15 26 -20 1 -4 2 -13 3 -18 0 -6 21 -33 46 -61 25 -28 55 -63
68 -77 13 -14 33 -43 44 -64 12 -21 28 -38 35 -38 7 0 13 -6 13 -13 0 -14 34
-54 105 -128 19 -20 35 -41 35 -47 0 -7 7 -12 15 -12 8 0 15 -3 15 -8 0 -4 16
-25 35 -47 20 -22 53 -60 73 -84 20 -25 88 -96 150 -158 61 -62 112 -116 112
-119 0 -8 27 -34 36 -34 10 0 134 -129 134 -140 0 -4 11 -11 24 -14 14 -3 33
-20 43 -36 9 -17 20 -30 24 -30 4 0 27 -18 51 -40 23 -22 47 -40 51 -40 10 0
37 -26 37 -36 0 -8 57 -64 65 -64 7 0 55 -41 83 -72 14 -16 31 -28 38 -28 6 0
15 -11 18 -25 4 -16 13 -25 25 -25 11 0 28 -11 39 -25 11 -14 22 -25 26 -25 3
0 19 -13 35 -29 17 -16 39 -32 50 -36 12 -3 21 -12 21 -18 0 -11 58 -55 85
-66 6 -2 26 -18 46 -35 59 -51 104 -86 112 -86 4 0 7 -7 7 -15 0 -8 6 -15 13
-15 7 0 21 -11 31 -25 10 -14 25 -25 32 -25 7 0 33 -20 57 -44 25 -24 54 -47
66 -51 11 -3 21 -10 21 -13 0 -4 17 -16 38 -27 20 -11 44 -29 54 -40 9 -12 32
-30 52 -40 20 -11 36 -23 36 -27 0 -5 5 -8 11 -8 6 0 17 -6 24 -12 33 -30 45
-38 55 -38 5 0 10 -4 10 -9 0 -5 10 -13 23 -17 12 -3 37 -22 55 -40 18 -19 41
-34 50 -34 9 0 23 -9 29 -20 7 -11 27 -27 45 -36 18 -9 40 -23 48 -30 8 -7 24
-22 36 -32 11 -10 42 -29 67 -41 26 -13 47 -27 47 -32 0 -5 11 -9 24 -9 16 0
26 -7 29 -21 3 -11 15 -23 26 -26 12 -3 21 -9 21 -13 0 -4 11 -11 25 -14 14
-4 25 -11 25 -16 0 -6 5 -10 11 -10 9 0 77 -46 89 -61 3 -4 15 -9 28 -13 12
-4 22 -12 22 -17 0 -5 11 -9 25 -9 14 0 25 -6 25 -13 0 -15 33 -34 65 -39 11
-2 24 -12 29 -23 5 -11 36 -34 70 -50 33 -17 70 -40 81 -52 12 -13 32 -23 47
-23 16 0 34 -10 46 -25 11 -14 23 -25 27 -25 5 0 32 -16 61 -35 29 -19 57 -35
63 -35 6 0 11 -7 11 -15 0 -9 9 -15 23 -15 13 0 34 -11 47 -25 13 -14 32 -25
43 -25 18 0 75 -34 88 -52 7 -11 80 -48 94 -48 5 0 22 -11 37 -25 15 -14 36
-25 48 -25 11 0 20 -4 20 -10 0 -5 11 -12 25 -16 14 -3 25 -10 25 -15 0 -5 5
-9 11 -9 6 0 25 -11 42 -24 18 -13 43 -26 57 -28 14 -2 29 -13 35 -25 7 -17
18 -23 42 -23 18 0 33 -3 33 -8 0 -4 9 -12 19 -17 80 -41 111 -60 111 -67 0
-4 15 -8 34 -8 24 0 38 -7 52 -25 10 -14 24 -25 30 -25 13 0 77 -30 84 -40 9
-12 94 -57 123 -64 15 -3 27 -13 27 -21 0 -9 14 -17 39 -21 22 -4 48 -14 59
-24 10 -9 36 -26 58 -36 21 -10 45 -24 52 -31 7 -7 21 -13 31 -13 10 0 35 -11
55 -25 20 -14 45 -25 55 -25 9 0 28 -11 41 -25 13 -14 28 -25 33 -25 18 0 87
-34 87 -42 0 -4 8 -8 18 -8 24 0 122 -49 122 -61 0 -5 8 -9 18 -9 10 0 27 -7
38 -15 10 -8 25 -15 32 -15 7 0 30 -11 50 -25 20 -14 48 -25 61 -25 13 0 39
-11 57 -25 18 -14 37 -25 41 -25 11 0 80 -35 96 -48 7 -6 26 -14 42 -18 17 -4
53 -20 82 -35 29 -16 59 -29 67 -29 9 0 16 -4 16 -10 0 -5 10 -10 23 -10 12 0
32 -11 44 -23 11 -13 44 -29 72 -37 29 -8 57 -20 63 -27 6 -7 19 -13 29 -13
10 0 35 -11 55 -25 20 -14 48 -25 61 -25 25 0 85 -28 91 -42 2 -5 12 -8 21 -8
10 0 31 -11 47 -25 16 -14 41 -25 57 -25 15 0 27 -4 27 -10 0 -5 12 -13 28
-16 15 -4 52 -18 82 -31 36 -16 74 -25 110 -25 72 0 177 21 191 38 6 8 19 14
29 14 10 0 23 7 30 15 7 8 21 15 32 15 10 0 31 11 46 25 15 14 37 25 49 25 12
0 35 11 51 25 17 14 42 25 56 25 14 0 26 5 26 10 0 6 6 10 13 10 8 0 36 11 62
25 27 13 62 27 77 30 15 4 28 11 28 16 0 5 7 9 14 9 8 0 27 11 42 25 15 14 38
25 51 25 14 0 37 8 51 19 15 10 50 28 77 40 28 12 62 29 78 37 15 8 27 12 27
7 0 -4 4 -3 8 2 10 14 59 45 71 45 6 0 27 11 47 25 20 14 43 25 51 25 8 0 29
11 47 25 18 14 45 25 59 25 14 0 29 5 32 10 3 6 15 10 26 10 10 0 19 7 19 15
0 9 9 15 25 15 14 0 25 4 25 10 0 5 11 12 25 16 14 3 25 10 25 15 0 5 9 9 20
9 11 0 20 3 20 8 0 8 54 37 88 47 12 3 22 10 22 14 0 4 18 14 40 21 22 7 40
16 40 20 0 4 29 21 64 38 36 17 67 36 71 42 3 5 15 10 26 10 11 0 32 11 47 25
15 14 39 25 53 25 16 0 37 11 50 25 13 13 29 25 36 25 16 0 73 33 73 43 0 4 9
7 20 7 11 0 23 6 26 14 3 7 23 19 44 26 22 7 49 24 61 36 13 14 34 24 49 24
15 0 35 9 44 19 10 11 31 25 47 31 16 7 29 16 29 21 0 5 7 9 15 9 8 0 15 5 15
10 0 6 9 10 20 10 26 0 80 27 80 40 0 6 6 10 14 10 8 0 28 11 44 25 17 14 37
25 45 25 8 0 20 7 27 15 7 8 19 15 26 15 8 0 14 5 14 10 0 6 6 10 14 10 8 0
16 4 18 9 3 7 55 38 161 95 20 11 37 26 37 33 0 8 12 13 30 13 20 0 39 9 54
25 13 14 28 25 33 25 6 0 16 7 23 15 7 8 21 15 32 15 11 0 22 9 25 20 3 11 13
20 22 20 10 0 26 7 37 15 10 8 25 15 32 15 7 0 24 11 38 25 14 14 36 25 49 25
18 0 25 5 25 20 0 11 8 23 18 26 32 11 82 39 82 46 0 5 9 8 20 8 11 0 20 4 20
9 0 5 8 12 18 15 9 3 35 22 56 41 22 19 47 35 55 35 9 0 27 10 41 23 14 13 40
30 57 38 18 7 33 19 33 25 0 6 29 25 65 42 36 18 71 41 77 52 7 11 23 20 35
20 14 0 23 6 23 15 0 8 17 23 38 34 21 11 44 27 51 35 8 9 18 16 23 16 5 0 20
11 34 25 14 14 31 25 39 25 8 0 15 4 15 10 0 5 17 18 38 29 20 10 46 28 56 40
11 12 25 21 33 21 7 0 13 5 13 10 0 6 11 15 25 20 14 5 28 17 31 25 4 9 26 24
50 35 24 11 48 29 54 40 6 11 16 20 23 20 6 0 21 10 32 23 11 13 35 29 53 37
18 7 53 31 76 54 24 23 55 49 68 59 14 10 40 31 58 47 19 17 40 30 47 30 7 0
13 4 13 9 0 5 16 19 36 32 42 26 104 85 104 99 0 6 8 10 18 10 9 0 26 11 36
25 10 14 24 25 30 25 6 0 23 11 37 24 14 13 35 29 47 35 12 6 22 18 22 26 0 7
10 15 23 17 14 2 23 11 25 26 3 16 10 22 28 22 13 0 24 3 24 8 0 9 56 72 65
72 8 0 35 27 35 35 0 9 27 35 35 35 4 0 16 11 27 25 11 14 28 25 38 25 11 0
24 9 30 19 5 11 24 28 40 38 17 9 30 23 30 30 0 8 11 19 25 25 14 6 25 17 25
25 0 7 5 13 10 13 6 0 15 11 20 25 6 15 17 25 30 25 12 0 25 10 32 25 6 14 19
25 29 25 11 0 21 10 25 24 3 13 16 29 30 36 13 8 24 17 24 21 0 11 81 89 92
89 4 0 8 6 8 13 0 8 11 19 25 25 14 6 25 18 25 25 0 8 13 26 30 40 16 15 32
38 36 52 4 18 13 25 30 25 17 0 27 8 34 24 5 14 23 35 39 47 17 13 31 29 31
36 0 7 9 17 19 23 11 5 28 24 38 40 9 17 23 30 29 30 7 0 15 8 18 18 8 23 46
66 72 80 12 6 24 25 28 42 4 20 16 37 36 48 16 9 33 26 36 37 4 10 22 34 40
52 19 18 34 39 34 46 0 8 11 23 25 33 14 10 25 23 25 29 0 6 23 41 50 77 27
37 50 71 50 77 0 6 3 11 8 11 4 0 20 23 37 50 16 28 35 50 42 50 7 0 13 9 13
20 0 12 11 33 25 48 14 15 25 35 25 46 0 10 9 28 20 40 11 12 36 38 56 59 20
20 44 37 55 37 10 0 19 4 19 9 0 5 22 12 50 16 27 4 52 11 56 16 3 5 16 9 29
9 22 0 68 16 117 41 10 5 33 9 52 9 19 0 38 5 41 10 3 6 16 10 28 10 12 0 31
7 41 15 11 8 35 15 53 15 18 0 33 5 33 10 0 6 7 10 16 10 9 0 30 6 47 14 18 8
41 16 52 19 11 3 45 15 75 26 30 12 67 21 82 21 16 0 28 3 28 8 0 4 28 15 63
25 109 31 132 40 138 49 4 6 27 13 53 15 25 3 46 9 46 13 0 4 18 10 40 14 23
3 49 10 58 15 9 5 53 17 97 27 44 10 89 26 101 36 11 10 30 18 42 18 13 0 39
7 59 15 19 8 51 15 70 15 18 0 55 11 81 24 26 13 71 27 100 31 28 4 52 10 52
14 0 4 19 14 43 21 99 29 143 45 152 52 5 4 18 8 28 8 11 0 41 11 69 25 27 14
62 25 77 25 15 0 56 11 91 25 35 14 79 25 97 25 21 0 36 6 39 15 4 8 14 15 23
15 33 0 95 28 102 46 14 35 10 307 -5 327 -13 16 -477 17 -9514 17 l-9500 0
-11 -31z m2890 -308 c11 -13 19 -34 19 -47 0 -29 20 -76 37 -87 7 -4 13 -17
13 -28 0 -12 9 -33 19 -48 11 -15 28 -47 37 -72 10 -24 24 -50 31 -57 7 -7 13
-24 13 -36 0 -13 11 -34 24 -47 13 -13 27 -39 31 -56 3 -18 14 -39 24 -45 10
-7 26 -26 37 -43 10 -16 21 -32 24 -35 6 -6 26 -50 29 -65 1 -5 9 -14 17 -18
8 -4 14 -17 14 -27 0 -11 6 -20 13 -20 13 0 37 -40 37 -60 0 -5 16 -26 35 -46
19 -20 38 -47 41 -61 4 -13 16 -28 28 -33 12 -4 32 -29 45 -54 13 -25 28 -46
33 -46 5 0 13 -11 18 -25 5 -14 14 -25 20 -25 5 0 10 -6 10 -14 0 -8 8 -21 18
-28 9 -7 39 -45 66 -85 26 -39 57 -73 67 -76 11 -3 19 -14 19 -26 0 -12 6 -21
15 -21 8 0 15 -3 15 -8 0 -7 45 -65 100 -130 11 -13 20 -28 20 -33 0 -5 11
-15 25 -21 14 -6 25 -15 25 -20 0 -13 26 -38 39 -38 6 0 11 -5 11 -11 0 -14
25 -39 39 -39 6 0 11 -3 11 -7 0 -5 11 -21 25 -37 14 -16 25 -35 25 -43 0 -7
11 -13 25 -13 16 0 25 -6 25 -16 0 -16 127 -144 142 -144 4 0 8 -9 8 -19 0
-13 8 -21 23 -23 14 -2 23 -11 25 -25 2 -13 10 -23 19 -23 8 0 38 -24 67 -53
28 -29 66 -62 84 -72 17 -11 32 -27 32 -37 0 -9 10 -23 22 -29 13 -7 45 -35
73 -63 27 -29 74 -67 102 -86 29 -19 53 -39 53 -43 0 -10 8 -18 77 -74 28 -24
56 -43 62 -43 6 0 11 -6 11 -14 0 -13 9 -20 35 -26 6 -1 21 -15 34 -31 13 -16
28 -29 34 -29 5 0 19 -10 31 -23 12 -13 30 -26 40 -30 10 -4 20 -16 23 -26 3
-11 16 -22 29 -25 13 -4 24 -13 24 -21 0 -8 12 -18 28 -21 15 -4 39 -20 54
-35 15 -16 34 -29 42 -29 8 0 18 -9 21 -20 4 -12 15 -20 29 -20 14 0 28 -10
36 -25 7 -14 18 -25 23 -25 5 0 18 -11 28 -24 11 -14 32 -26 47 -28 16 -2 31
-12 37 -25 5 -13 17 -23 25 -23 8 0 33 -16 55 -35 22 -20 48 -38 58 -41 9 -3
17 -10 17 -15 0 -5 9 -9 21 -9 13 0 23 -8 26 -21 3 -12 17 -22 34 -26 15 -3
38 -16 50 -29 12 -13 26 -24 30 -24 10 0 133 -83 137 -92 2 -5 12 -8 22 -8 10
0 27 -11 38 -25 11 -14 25 -25 31 -25 6 0 11 -3 11 -8 0 -4 17 -16 38 -27 20
-11 51 -30 68 -42 17 -13 38 -23 46 -23 9 0 26 -11 39 -25 13 -13 32 -25 42
-25 9 0 17 -5 17 -11 0 -15 30 -38 49 -39 8 0 29 -11 47 -25 18 -14 37 -25 43
-25 21 0 61 -24 61 -37 0 -7 9 -13 20 -13 11 0 23 -7 26 -15 4 -8 12 -15 20
-15 8 0 14 -4 14 -10 0 -5 7 -10 15 -10 9 0 28 -11 42 -24 14 -13 37 -26 52
-29 14 -3 36 -15 48 -26 12 -12 31 -21 43 -21 11 0 20 -4 20 -8 0 -5 19 -19
43 -32 23 -13 53 -32 66 -42 13 -10 30 -18 37 -18 7 0 25 -11 40 -25 15 -14
33 -25 40 -25 16 0 74 -33 74 -42 0 -5 9 -8 19 -8 11 0 22 -4 26 -9 6 -11 63
-41 77 -41 5 0 26 -11 46 -25 20 -14 43 -25 52 -25 8 0 26 -12 39 -25 13 -14
33 -25 45 -26 11 0 41 -14 66 -30 59 -38 224 -119 242 -119 8 0 28 -11 44 -25
16 -14 35 -25 43 -25 8 0 22 -6 30 -13 9 -7 45 -26 81 -41 36 -16 121 -55 190
-88 69 -33 141 -67 160 -77 19 -9 36 -19 38 -23 2 -5 15 -8 28 -8 13 0 24 -4
24 -10 0 -5 6 -10 14 -10 7 0 19 -7 26 -15 7 -8 23 -15 36 -15 12 0 26 -4 29
-10 3 -6 14 -10 25 -10 10 0 20 -7 24 -15 3 -8 12 -15 20 -15 8 0 34 -11 57
-25 25 -14 60 -25 82 -25 20 0 37 -3 37 -7 0 -11 58 -43 78 -44 9 0 31 -9 47
-20 17 -10 37 -21 45 -25 8 -3 22 -9 30 -13 9 -5 30 -12 48 -16 18 -3 32 -11
32 -16 0 -5 7 -9 17 -9 9 0 31 -11 49 -25 19 -15 46 -25 66 -25 18 0 56 -12
83 -25 28 -14 60 -25 71 -25 12 0 24 -6 27 -14 3 -8 25 -20 49 -27 24 -7 47
-16 52 -21 14 -12 106 -10 106 2 0 6 18 10 40 10 22 0 40 4 40 9 0 6 20 13 45
17 25 3 45 9 45 13 0 3 12 11 28 17 15 7 34 14 42 18 8 3 22 10 30 15 8 5 41
17 73 26 31 9 57 21 57 26 0 5 7 9 14 9 8 0 36 11 62 25 26 14 53 25 60 25 8
0 14 5 14 10 0 6 8 10 19 10 10 0 24 7 31 15 7 8 25 15 40 15 16 0 30 3 32 8
6 15 70 42 99 42 16 0 29 5 29 10 0 6 9 10 19 10 11 0 26 7 35 15 8 8 22 15
30 15 9 0 16 4 16 9 0 5 12 12 27 16 39 9 114 45 130 61 8 8 22 14 32 14 10 0
62 22 117 49 54 26 109 52 122 55 12 4 22 11 22 15 0 4 10 7 22 8 11 1 24 6
27 11 3 5 27 17 53 28 27 10 48 22 48 27 0 4 9 7 20 7 11 0 20 4 20 8 0 12 56
42 78 42 23 0 82 31 82 43 0 4 7 7 15 7 14 0 28 6 75 31 8 5 35 19 60 31 25
13 46 26 48 31 2 4 12 7 21 7 10 0 28 11 41 25 13 14 32 25 43 25 20 0 111 46
135 68 7 6 24 12 38 12 13 0 24 5 24 10 0 6 6 10 14 10 8 0 21 6 28 13 19 17
56 37 69 37 14 0 39 25 39 39 0 6 11 11 25 11 14 0 25 4 25 8 0 5 19 16 43 26
23 10 56 29 74 42 17 13 38 24 46 24 8 0 27 11 43 25 16 14 38 25 49 25 11 0
32 11 47 25 15 14 33 25 41 25 8 0 26 11 41 25 15 14 36 25 47 25 10 0 19 4
19 8 0 5 17 17 37 28 21 10 44 25 51 32 7 6 17 12 21 12 4 0 16 8 27 18 31 28
72 52 89 52 9 0 18 7 21 15 4 8 12 15 20 15 8 0 14 5 14 10 0 6 9 10 19 10 30
0 51 11 51 26 0 8 6 14 14 14 8 0 21 7 29 15 8 8 33 24 55 35 22 12 46 28 52
36 7 7 32 24 56 36 24 12 44 25 44 30 0 4 6 8 13 8 8 0 23 11 36 24 12 12 40
29 61 36 22 7 40 19 40 27 0 7 6 13 14 13 8 0 23 11 34 25 11 14 27 25 35 25
9 0 22 6 29 13 7 7 40 31 73 52 57 38 70 47 98 70 7 6 25 16 40 23 15 6 30 19
33 27 4 8 15 15 25 15 10 0 19 6 19 13 0 7 14 21 30 30 17 10 30 16 30 14 0
-2 18 13 40 33 21 20 52 43 67 51 15 8 36 24 46 37 10 12 24 22 30 22 7 0 37
23 67 50 30 27 63 50 73 50 10 0 17 8 17 20 0 12 9 24 23 29 12 5 31 18 41 30
11 11 27 21 36 21 9 0 22 11 28 25 6 14 18 25 27 25 8 0 15 5 15 10 0 6 7 10
15 10 8 0 15 7 15 15 0 8 9 15 19 15 18 0 77 50 97 81 5 8 26 22 47 31 24 12
37 24 37 37 0 11 9 23 22 27 12 3 36 22 54 40 17 19 35 34 40 34 5 0 18 11 28
25 10 14 27 25 36 25 10 0 20 9 23 21 3 11 15 23 26 26 12 3 21 10 21 17 0 6
14 22 30 34 16 13 46 39 67 58 20 19 41 34 45 34 4 0 8 5 8 11 0 6 45 54 100
108 55 53 100 102 100 109 0 6 5 12 11 12 14 0 184 172 193 195 3 9 15 19 26
22 11 3 20 12 20 19 0 8 5 14 10 14 6 0 10 6 10 13 0 16 106 127 121 127 5 0
9 7 9 16 0 9 16 34 35 57 19 22 35 44 35 49 0 4 7 8 15 8 8 0 15 9 15 20 0 13
10 24 25 30 14 5 25 17 25 28 0 10 11 25 25 32 15 8 25 22 25 35 0 12 11 31
25 41 14 10 25 26 25 35 0 9 11 24 25 33 14 9 25 23 25 31 0 8 7 15 15 15 8 0
15 6 15 13 0 7 16 31 35 53 19 21 35 49 35 62 0 17 6 22 25 22 20 0 25 5 25
25 0 14 5 25 10 25 6 0 10 6 10 14 0 8 6 21 13 28 18 20 37 50 43 71 4 9 9 17
13 17 4 0 15 16 24 35 9 19 21 35 27 35 5 0 10 10 10 23 0 12 11 34 25 49 14
15 25 39 25 53 0 16 6 25 15 25 8 0 15 5 15 11 0 7 16 45 35 85 19 40 35 78
35 85 0 7 11 26 23 43 13 17 32 52 41 78 12 30 25 48 40 52 28 8 112 7 214 -1
l82 -6 0 -43 c0 -24 -4 -46 -10 -49 -5 -3 -10 -14 -10 -24 0 -10 -7 -24 -15
-31 -9 -8 -15 -30 -15 -56 0 -24 -4 -44 -8 -44 -9 0 -42 -69 -43 -91 0 -8 -9
-27 -20 -44 -10 -16 -21 -37 -25 -45 -3 -8 -10 -22 -15 -30 -11 -19 -32 -62
-55 -117 -9 -24 -21 -43 -26 -43 -4 0 -8 -7 -8 -15 0 -8 -4 -15 -9 -15 -5 0
-12 -11 -15 -25 -4 -14 -11 -25 -16 -25 -6 0 -10 -11 -10 -25 0 -16 -6 -25
-15 -25 -8 0 -15 -7 -15 -15 0 -8 -4 -15 -10 -15 -5 0 -10 -9 -10 -19 0 -10
-11 -29 -25 -42 -13 -13 -25 -32 -25 -41 0 -10 -4 -18 -8 -18 -5 0 -19 -20
-31 -46 -13 -25 -31 -50 -42 -57 -10 -6 -19 -16 -19 -21 0 -5 -11 -24 -25 -42
-14 -18 -25 -36 -25 -40 0 -4 -10 -16 -22 -28 -27 -25 -78 -92 -78 -101 0 -11
-54 -79 -77 -98 -13 -10 -23 -25 -23 -34 0 -8 -19 -35 -42 -58 -69 -70 -88
-92 -88 -103 0 -6 -10 -14 -22 -18 -26 -8 -47 -32 -48 -53 0 -7 -22 -35 -49
-62 -26 -26 -51 -55 -55 -64 -3 -9 -15 -19 -26 -22 -11 -3 -20 -10 -20 -15 0
-13 -26 -38 -39 -38 -6 0 -11 -5 -11 -12 0 -13 -125 -138 -139 -138 -5 0 -12
-11 -15 -25 -4 -16 -13 -25 -25 -25 -12 0 -21 -9 -25 -25 -4 -14 -11 -25 -17
-25 -6 0 -32 -22 -58 -50 -26 -27 -52 -50 -59 -50 -7 0 -12 -7 -12 -15 0 -8
-4 -15 -9 -15 -11 0 -111 -100 -111 -111 0 -5 -5 -9 -11 -9 -6 0 -20 -11 -31
-25 -11 -14 -26 -25 -34 -25 -8 0 -47 -33 -87 -73 -40 -41 -80 -77 -90 -80
-11 -4 -21 -16 -24 -27 -3 -11 -14 -20 -24 -20 -12 0 -23 -10 -29 -25 -6 -15
-17 -25 -30 -25 -11 0 -20 -4 -20 -9 0 -5 -33 -35 -72 -67 -40 -33 -82 -67
-92 -76 -11 -10 -23 -18 -28 -18 -4 0 -8 -7 -8 -15 0 -8 -4 -15 -10 -15 -17 0
-89 -54 -90 -67 0 -7 -4 -13 -8 -13 -5 0 -17 -8 -28 -18 -10 -10 -35 -27 -54
-39 -20 -12 -47 -31 -59 -43 -13 -11 -28 -20 -33 -20 -4 0 -23 -15 -41 -32
-35 -36 -153 -118 -168 -118 -5 0 -9 -7 -9 -15 0 -8 -7 -15 -15 -15 -8 0 -15
-4 -15 -9 0 -5 -16 -16 -35 -25 -19 -9 -35 -21 -35 -26 0 -6 -5 -10 -10 -10
-6 0 -23 -11 -38 -25 -15 -14 -32 -25 -38 -25 -7 0 -14 -7 -17 -14 -3 -8 -21
-23 -39 -32 -18 -9 -40 -25 -49 -35 -9 -11 -19 -19 -23 -19 -7 0 -77 -49 -86
-61 -3 -4 -15 -9 -27 -13 -13 -4 -23 -12 -23 -17 0 -5 -8 -9 -19 -9 -10 0 -26
-11 -35 -24 -8 -14 -26 -26 -38 -28 -13 -2 -27 -13 -33 -25 -5 -13 -22 -24
-42 -28 -18 -3 -33 -9 -33 -13 0 -4 -15 -16 -32 -27 -18 -10 -40 -27 -49 -37
-9 -10 -20 -18 -25 -18 -20 0 -94 -43 -94 -56 0 -15 -34 -37 -44 -27 -3 3 -6
1 -6 -5 0 -7 -8 -12 -18 -12 -9 0 -28 -10 -42 -23 -14 -12 -40 -29 -57 -36
-18 -7 -33 -20 -33 -27 0 -8 -10 -14 -21 -14 -12 0 -32 -11 -45 -25 -13 -14
-29 -25 -37 -25 -8 0 -23 -11 -33 -25 -10 -14 -28 -25 -40 -25 -12 0 -24 -7
-28 -15 -3 -8 -12 -15 -21 -15 -9 0 -24 -8 -35 -17 -17 -17 -33 -26 -112 -63
-16 -7 -28 -19 -28 -27 0 -7 -9 -13 -20 -13 -18 0 -64 -23 -80 -40 -3 -3 -35
-20 -71 -38 -36 -17 -75 -41 -87 -52 -12 -11 -25 -20 -29 -20 -4 0 -21 -11
-37 -25 -16 -14 -40 -25 -53 -25 -12 0 -23 -3 -23 -8 0 -4 -17 -16 -37 -27
-21 -11 -40 -23 -43 -27 -3 -3 -30 -19 -60 -34 -30 -15 -59 -33 -65 -39 -5 -6
-29 -18 -52 -25 -24 -7 -43 -17 -43 -21 0 -4 -22 -15 -50 -24 -29 -10 -50 -23
-50 -31 0 -8 -7 -14 -16 -14 -8 0 -30 -11 -48 -25 -18 -14 -40 -25 -49 -25 -9
0 -18 -4 -22 -9 -3 -6 -18 -16 -33 -24 -15 -8 -49 -26 -76 -40 -27 -15 -55
-27 -63 -27 -7 0 -31 -13 -52 -28 -21 -15 -73 -45 -115 -67 -42 -21 -76 -42
-76 -47 0 -4 -9 -8 -20 -8 -11 0 -38 -11 -60 -25 -22 -14 -45 -25 -52 -25 -8
0 -30 -11 -50 -25 -20 -14 -41 -25 -47 -25 -14 0 -71 -34 -71 -42 0 -5 -9 -8
-20 -8 -11 0 -38 -11 -60 -25 -22 -14 -46 -25 -55 -25 -8 0 -15 -4 -15 -10 0
-5 -11 -12 -25 -16 -14 -3 -25 -10 -25 -15 0 -5 -11 -9 -25 -9 -14 0 -25 -3
-25 -7 0 -12 -59 -43 -81 -43 -10 0 -19 -4 -19 -8 0 -5 -19 -16 -42 -26 -70
-28 -108 -49 -108 -58 0 -4 -11 -8 -24 -8 -14 0 -28 -5 -31 -10 -3 -6 -14 -10
-24 -10 -10 0 -24 -7 -31 -15 -7 -8 -26 -15 -42 -15 -16 0 -31 -6 -34 -14 -3
-7 -34 -26 -70 -42 -35 -15 -64 -31 -64 -36 0 -4 -11 -8 -24 -8 -14 0 -27 -4
-30 -9 -10 -16 -171 -89 -210 -94 -60 -9 -121 3 -149 29 -18 16 -38 24 -63 24
-26 0 -43 7 -60 25 -13 14 -34 25 -49 25 -14 0 -25 5 -25 10 0 6 -8 10 -17 10
-10 0 -31 7 -47 15 -15 8 -35 15 -42 15 -8 0 -14 5 -14 10 0 6 -6 10 -14 10
-7 0 -19 7 -26 15 -7 8 -23 15 -35 15 -13 0 -25 3 -27 8 -5 12 -68 42 -89 42
-10 0 -19 5 -19 10 0 6 -7 10 -15 10 -8 0 -31 9 -52 19 -21 11 -58 29 -83 41
-25 11 -65 31 -89 45 -24 14 -52 25 -61 25 -10 0 -23 7 -30 15 -7 8 -18 15
-26 15 -7 0 -32 10 -56 23 -24 13 -52 28 -63 34 -26 14 -230 112 -275 132 -19
9 -38 21 -43 28 -4 6 -20 14 -36 18 -16 3 -35 13 -42 21 -6 8 -19 14 -28 14
-9 0 -25 7 -35 15 -11 8 -28 15 -38 15 -10 0 -18 5 -18 10 0 6 -6 10 -13 10
-7 0 -29 11 -49 25 -20 14 -48 25 -62 25 -15 0 -26 4 -26 9 0 5 -11 12 -25 15
-14 4 -25 11 -25 16 0 6 -7 10 -15 10 -9 0 -39 15 -68 33 -29 18 -79 46 -112
62 -33 16 -64 35 -68 42 -4 7 -15 13 -23 13 -9 0 -30 11 -48 25 -18 14 -40 25
-49 25 -10 0 -17 4 -17 8 0 9 -70 42 -88 42 -7 0 -12 5 -12 10 0 6 -6 10 -14
10 -7 0 -19 7 -26 15 -7 8 -21 15 -31 15 -10 0 -29 11 -43 25 -14 14 -34 25
-46 25 -11 0 -20 4 -20 8 0 9 -70 42 -88 42 -6 0 -19 11 -28 25 -9 14 -24 25
-33 25 -9 0 -33 11 -53 25 -20 14 -40 25 -44 25 -3 0 -19 11 -36 25 -16 14
-37 25 -47 25 -10 0 -28 11 -41 25 -13 14 -31 25 -39 25 -9 0 -28 11 -43 25
-15 14 -33 25 -41 25 -20 0 -77 30 -77 41 0 5 -6 9 -13 9 -8 0 -24 11 -37 25
-13 14 -34 25 -47 25 -13 0 -34 11 -47 25 -13 14 -31 25 -40 25 -9 0 -16 3
-16 8 0 4 -17 16 -37 27 -21 11 -47 28 -57 37 -11 10 -28 20 -38 24 -10 3 -18
9 -18 14 0 4 -19 18 -42 29 -24 11 -56 30 -73 41 -16 11 -38 20 -47 20 -9 0
-24 10 -32 21 -8 12 -23 27 -34 33 -19 11 -97 67 -119 86 -7 5 -21 10 -33 10
-11 0 -20 4 -20 8 0 10 -122 92 -137 92 -6 0 -13 7 -17 15 -3 8 -15 15 -26 15
-11 0 -20 7 -20 15 0 9 -11 21 -25 27 -14 6 -25 15 -25 20 0 4 -11 8 -25 8
-14 0 -25 4 -25 10 0 5 -19 23 -42 40 -24 17 -54 38 -67 48 -14 9 -32 25 -40
35 -9 9 -22 17 -30 17 -7 0 -24 11 -36 24 -12 13 -33 26 -46 28 -13 1 -28 13
-34 26 -5 12 -18 22 -27 22 -10 0 -18 4 -18 8 0 5 -22 24 -50 43 -27 19 -50
37 -50 42 0 4 -7 7 -16 7 -18 0 -44 23 -44 39 0 6 -8 11 -17 11 -10 0 -27 10
-38 23 -11 13 -44 40 -74 60 -53 37 -88 66 -119 100 -9 9 -22 17 -30 17 -7 0
-30 18 -52 40 -22 22 -46 40 -55 40 -8 0 -15 9 -15 20 0 12 -12 26 -32 36 -18
9 -41 27 -51 40 -10 13 -25 24 -32 24 -8 0 -22 11 -31 25 -9 14 -22 25 -29 25
-7 0 -20 11 -29 25 -9 14 -21 25 -26 25 -5 0 -29 20 -52 46 -24 25 -58 52 -76
61 -18 9 -35 26 -38 39 -3 13 -10 24 -15 24 -5 0 -28 18 -51 40 -24 22 -47 40
-51 40 -12 0 -37 27 -37 39 0 6 -9 11 -20 11 -13 0 -22 9 -26 25 -3 14 -10 25
-14 25 -5 0 -42 34 -83 75 -42 41 -82 75 -90 75 -8 0 -18 11 -21 25 -4 14 -13
25 -21 25 -8 0 -19 9 -25 20 -6 11 -31 40 -55 65 -25 24 -45 49 -45 55 0 5 -6
10 -13 10 -8 0 -19 11 -27 24 -7 13 -21 27 -31 29 -10 3 -22 13 -26 24 -4 10
-24 36 -45 58 -21 22 -38 43 -38 46 0 3 -27 34 -60 69 -33 35 -60 69 -60 75 0
6 -11 18 -25 25 -14 7 -25 20 -25 27 0 7 -7 16 -15 19 -8 4 -15 11 -15 16 0 6
-16 24 -35 41 -19 16 -35 38 -35 49 0 21 -22 48 -39 48 -6 0 -11 11 -11 25 0
15 -6 25 -15 25 -8 0 -20 10 -26 22 -6 12 -22 33 -35 47 -13 14 -24 33 -24 41
0 8 -11 24 -25 34 -14 10 -25 25 -25 33 0 8 -11 24 -25 37 -13 12 -39 48 -57
78 -18 31 -48 81 -66 112 -19 31 -38 56 -43 56 -5 0 -9 8 -9 18 0 11 -11 32
-25 48 -14 16 -25 39 -25 52 0 12 -4 22 -10 22 -5 0 -17 17 -26 38 -9 20 -27
59 -40 85 -13 27 -24 55 -24 63 0 8 -4 14 -9 14 -12 0 -41 58 -41 82 0 10 -4
18 -8 18 -7 0 -30 52 -33 75 0 6 -4 15 -9 20 -4 6 -11 25 -15 43 -24 113 -20
116 150 119 76 1 139 3 141 5 1 2 33 1 70 -2 53 -5 70 -10 85 -29z m13004 25
c11 -2 25 -5 32 -5 7 -1 17 -10 23 -22 9 -17 7 -26 -14 -54 -14 -19 -26 -46
-26 -62 -1 -30 -20 -63 -39 -63 -6 0 -11 -11 -11 -24 0 -13 -3 -26 -7 -28 -11
-4 -43 -67 -43 -84 0 -8 -6 -14 -13 -14 -6 0 -18 -15 -25 -32 -24 -57 -46 -98
-54 -98 -5 0 -8 -9 -8 -19 0 -10 -11 -29 -25 -42 -13 -13 -25 -30 -25 -37 0
-7 -11 -25 -25 -40 -14 -15 -25 -32 -25 -39 0 -6 -11 -20 -25 -31 -14 -11 -25
-27 -25 -36 0 -9 -11 -21 -25 -26 -17 -7 -25 -17 -25 -35 0 -15 -9 -31 -25
-41 -14 -9 -25 -22 -25 -29 0 -7 -11 -21 -25 -31 -14 -10 -25 -29 -25 -41 0
-13 -6 -23 -13 -23 -7 0 -21 -14 -31 -31 -10 -18 -27 -40 -37 -50 -11 -11 -19
-25 -19 -32 0 -8 -11 -20 -25 -27 -14 -7 -25 -18 -25 -24 0 -7 -12 -23 -27
-38 -43 -41 -73 -76 -73 -86 0 -5 -11 -15 -25 -22 -14 -7 -25 -22 -25 -32 0
-11 -11 -29 -25 -42 -14 -13 -25 -28 -25 -35 0 -6 -4 -11 -9 -11 -17 0 -91
-76 -91 -93 0 -9 -11 -19 -25 -23 -14 -3 -25 -11 -25 -16 0 -13 -26 -38 -39
-38 -6 0 -11 -6 -11 -14 0 -7 -22 -34 -50 -59 -27 -25 -50 -50 -50 -55 0 -5
-11 -14 -25 -20 -15 -7 -25 -20 -25 -32 0 -12 -7 -20 -16 -20 -9 0 -49 -34
-89 -75 -40 -41 -77 -75 -82 -75 -4 0 -13 -10 -18 -22 -6 -13 -18 -24 -28 -26
-10 -2 -35 -22 -55 -45 -55 -60 -82 -87 -90 -87 -4 0 -24 -16 -44 -35 -20 -19
-39 -35 -42 -35 -3 0 -27 -22 -53 -50 -26 -28 -55 -50 -64 -50 -11 0 -19 -9
-21 -22 -2 -13 -11 -24 -23 -27 -11 -2 -29 -14 -40 -27 -11 -13 -26 -24 -32
-24 -6 0 -34 -22 -62 -50 -28 -27 -54 -50 -56 -50 -3 0 -18 -11 -33 -25 -15
-14 -30 -25 -35 -25 -4 0 -24 -16 -44 -35 -20 -19 -41 -35 -47 -35 -6 0 -19
-8 -28 -17 -27 -30 -62 -59 -93 -79 -16 -10 -37 -26 -46 -36 -9 -10 -21 -18
-26 -18 -6 0 -16 -7 -23 -15 -7 -8 -21 -15 -32 -15 -11 0 -22 -9 -25 -20 -6
-21 -115 -100 -139 -100 -8 0 -14 -7 -14 -15 0 -8 -8 -15 -19 -15 -10 0 -27
-11 -37 -25 -10 -14 -23 -25 -28 -25 -5 0 -24 -11 -42 -25 -18 -14 -41 -25
-52 -25 -11 0 -22 -9 -25 -20 -3 -11 -13 -23 -22 -26 -10 -4 -29 -18 -43 -30
-14 -13 -32 -24 -42 -24 -9 0 -27 -11 -40 -24 -12 -14 -35 -28 -49 -31 -15 -3
-33 -15 -41 -25 -8 -11 -19 -20 -25 -20 -6 0 -22 -11 -37 -25 -15 -14 -32 -25
-38 -25 -5 0 -10 -4 -10 -10 0 -5 -11 -12 -25 -16 -14 -3 -25 -10 -25 -15 0
-5 -8 -9 -19 -9 -10 0 -26 -11 -35 -25 -9 -14 -22 -25 -29 -25 -7 0 -29 -11
-49 -25 -20 -14 -44 -25 -52 -25 -9 0 -16 -7 -16 -15 0 -8 -6 -15 -14 -15 -8
0 -37 -16 -65 -35 -28 -19 -57 -35 -64 -35 -8 0 -26 -11 -41 -25 -15 -14 -36
-25 -47 -25 -10 0 -19 -4 -19 -8 0 -5 -11 -15 -24 -22 -14 -7 -26 -22 -28 -34
-2 -17 -12 -22 -48 -26 -25 -3 -61 -15 -80 -27 -19 -12 -54 -32 -77 -44 -24
-12 -43 -26 -43 -31 0 -4 -11 -8 -25 -8 -14 0 -25 -6 -25 -13 0 -8 -18 -20
-40 -27 -22 -7 -45 -19 -51 -27 -6 -7 -18 -13 -25 -13 -8 0 -14 -4 -14 -10 0
-5 -13 -10 -29 -10 -20 0 -34 -8 -45 -25 -9 -14 -23 -25 -30 -25 -8 0 -28 -11
-44 -25 -17 -14 -37 -25 -46 -25 -9 0 -34 -11 -56 -25 -22 -14 -46 -25 -55
-25 -8 0 -15 -3 -15 -8 0 -7 -40 -30 -80 -46 -8 -3 -28 -15 -45 -25 -16 -11
-38 -20 -49 -20 -10 -1 -29 -12 -42 -26 -13 -14 -32 -25 -43 -25 -25 0 -91
-31 -91 -42 0 -4 -11 -8 -25 -8 -14 0 -25 -4 -25 -8 0 -10 -120 -72 -138 -72
-7 0 -12 -4 -12 -10 0 -5 -9 -10 -21 -10 -23 0 -79 -30 -79 -42 0 -4 -8 -8
-18 -8 -24 0 -82 -29 -82 -41 0 -5 -9 -9 -19 -9 -11 0 -23 -4 -26 -10 -3 -5
-14 -10 -23 -10 -9 0 -30 -7 -46 -15 -15 -8 -36 -15 -46 -15 -10 0 -25 -6 -32
-12 -14 -14 -38 -26 -105 -54 -24 -10 -43 -21 -43 -26 0 -4 -11 -8 -25 -8 -14
0 -28 -7 -31 -15 -4 -8 -14 -15 -24 -15 -11 0 -22 -4 -25 -10 -3 -5 -15 -10
-26 -10 -11 0 -37 -11 -59 -25 -22 -14 -46 -25 -54 -25 -8 0 -18 -4 -21 -10
-3 -6 -13 -10 -21 -10 -14 0 -59 -18 -148 -61 -22 -11 -47 -19 -55 -19 -9 -1
-41 -14 -71 -30 -30 -17 -61 -30 -69 -30 -8 0 -22 -7 -32 -16 -10 -9 -32 -19
-51 -24 -18 -5 -58 -18 -88 -29 -30 -12 -75 -21 -99 -21 -45 0 -153 29 -159
42 -2 5 -12 8 -23 8 -11 0 -27 4 -37 10 -30 16 -86 38 -114 44 -16 4 -28 13
-28 20 0 17 -22 26 -66 26 -19 0 -34 4 -34 8 0 12 -56 42 -78 42 -11 0 -22 3
-24 8 -4 9 -75 42 -91 42 -7 0 -34 11 -62 25 -27 13 -58 25 -67 25 -10 0 -18
3 -18 8 0 4 -17 16 -37 26 -21 10 -51 24 -66 32 -16 8 -35 14 -43 14 -8 0 -14
5 -14 10 0 6 -11 10 -25 10 -14 0 -25 3 -25 8 0 4 -21 15 -48 25 -26 10 -68
29 -95 42 -26 14 -53 25 -60 25 -6 0 -25 11 -41 25 -16 14 -42 25 -57 25 -15
0 -30 4 -34 9 -6 11 -63 41 -77 41 -6 0 -21 9 -35 20 -14 11 -43 25 -64 30
-22 6 -39 17 -39 24 0 15 -21 26 -50 26 -10 0 -20 3 -22 8 -6 13 -66 42 -88
42 -12 0 -36 11 -54 25 -18 14 -36 25 -40 25 -3 0 -24 11 -46 25 -22 14 -46
25 -53 25 -8 0 -26 11 -41 25 -15 14 -34 25 -42 25 -18 0 -57 21 -67 38 -4 6
-20 12 -35 12 -30 1 -62 21 -62 39 0 6 -11 11 -25 11 -14 0 -25 4 -25 10 0 5
-11 12 -25 16 -14 3 -25 10 -25 15 0 5 -6 9 -14 9 -17 0 -80 32 -84 43 -2 4
-12 7 -22 7 -9 0 -23 6 -29 14 -7 8 -26 22 -44 30 -18 9 -50 28 -72 42 -22 13
-49 29 -60 34 -11 6 -27 14 -35 19 -8 5 -32 17 -52 25 -20 9 -40 21 -43 26 -3
6 -15 10 -26 10 -10 0 -19 5 -19 10 0 6 -24 10 -52 10 -73 0 -98 8 -98 32 0
32 -60 107 -97 120 -18 7 -33 16 -33 20 0 4 -5 8 -12 8 -6 0 -26 11 -44 25
-18 14 -40 25 -48 25 -9 0 -16 6 -16 14 0 12 -21 25 -131 81 -10 5 -19 13 -19
17 0 5 -5 8 -11 8 -6 0 -24 10 -39 23 -61 48 -75 57 -90 57 -8 0 -27 11 -41
24 -14 13 -35 26 -46 30 -12 4 -23 16 -26 26 -3 12 -14 20 -26 20 -12 0 -21 4
-21 8 0 4 -15 16 -32 27 -18 10 -44 29 -58 42 -14 13 -30 23 -36 23 -6 0 -31
19 -55 41 -24 23 -55 47 -69 53 -46 21 -97 59 -106 80 -5 12 -19 22 -30 24
-12 2 -32 14 -45 28 -12 13 -26 24 -31 24 -5 0 -21 11 -36 25 -15 14 -32 25
-39 25 -7 0 -13 5 -13 11 0 14 -30 38 -48 39 -7 0 -35 23 -62 50 -27 28 -54
50 -58 50 -9 0 -42 26 -91 70 -47 43 -95 77 -118 84 -13 4 -23 15 -23 25 0 9
-13 24 -29 34 -16 10 -46 33 -65 52 -20 19 -39 35 -42 35 -6 0 -30 19 -52 43
-59 61 -144 137 -155 137 -5 0 -6 4 -3 9 7 10 -31 61 -46 61 -11 0 -14 3 -123
105 -38 36 -73 65 -77 65 -4 0 -8 7 -8 15 0 8 -7 15 -15 15 -8 0 -15 4 -15 9
0 6 -44 55 -97 110 -54 55 -108 113 -121 130 -13 16 -45 53 -73 81 -27 28 -49
55 -49 60 0 6 -7 10 -15 10 -8 0 -15 7 -15 15 0 8 -11 25 -25 37 -14 12 -25
26 -25 32 -1 6 -18 25 -39 41 -34 26 -52 48 -103 130 -11 17 -52 66 -123 145
-7 8 -19 29 -27 45 -7 17 -23 41 -35 55 -12 13 -25 36 -28 50 -3 14 -19 34
-35 45 -17 11 -30 23 -30 27 0 4 -13 27 -30 51 -16 25 -30 50 -30 55 0 6 -16
27 -35 48 -19 20 -35 43 -35 51 0 8 -9 24 -20 36 -12 12 -23 32 -27 45 -3 13
-21 47 -39 74 -19 28 -37 61 -40 74 -3 13 -10 24 -15 24 -5 0 -9 7 -9 16 0 9
-11 29 -25 46 -14 16 -25 42 -25 58 0 28 -26 89 -44 101 -8 7 9 48 22 50 74
13 12750 18 12807 5z"/>
<path d="M9573 8201 c-10 -16 -10 -27 2 -53 l14 -33 1 53 c0 28 -1 52 -3 52
-1 0 -8 -9 -14 -19z"/>
</g>
</svg>
